<svg width="1000" height="1000" viewBox="0 0 1000 1000" xmlns="http://www.w3.org/2000/svg"><defs/><path transform="matrix(0.5048377151754995 0 0 0.5048377151754995 13.96280651588537 -2.4307096233638372)" d="M 388.56873095067 868.42150359292 C 388.56873095067 887.53055593707 373.07778329482 903.02150359292 353.96873095067 903.02150359292 C 334.85967860652 903.02150359292 319.36873095067 887.53055593707 319.36873095067 868.42150359292 C 319.36873095067 849.31245124877 334.85967860652 833.82150359292 353.96873095067 833.82150359292 C 373.07778329482 833.82150359292 388.56873095067 849.31245124877 388.56873095067 868.42150359292 Z"/><path transform="matrix(0.5048377151754995 0 0 0.5048377151754995 13.96280651588537 -2.4307096233638372)" d="M 526.06873095067 918.42150359292 C 526.06873095067 935.92893016256 511.87615752031 950.12150359292 494.36873095067 950.12150359292 C 476.86130438103 950.12150359292 462.66873095067 935.92893016256 462.66873095067 918.42150359292 C 462.66873095067 900.91407702328 476.86130438103 886.72150359292 494.36873095067 886.72150359292 C 511.87615752031 886.72150359292 526.06873095067 900.91407702328 526.06873095067 918.42150359292 Z"/><path transform="matrix(0.5048377151754995 0 0 0.5048377151754995 13.96280651588537 -2.4307096233638372)" d="M 669.36873095067 868.42150359292 C 669.36873095067 887.53055593707 653.87778329482 903.02150359292 634.76873095067 903.02150359292 C 615.65967860652 903.02150359292 600.16873095067 887.53055593707 600.16873095067 868.42150359292 C 600.16873095067 849.31245124877 615.65967860652 833.82150359292 634.76873095067 833.82150359292 C 653.87778329482 833.82150359292 669.36873095067 849.31245124877 669.36873095067 868.42150359292 Z"/><path transform="matrix(0.5048377151754995 0 0 0.5048377151754995 13.96280651588537 -2.4307096233638372)" d="M 703.66873095067 1156.62150359292 C 703.46873095067 1156.62150359292 703.26873095067 1156.62150359292 703.06873095067 1156.62150359292 C 696.16873095067 1156.32150359292 690.96873095067 1150.42150359292 691.26873095067 1143.62150359292 C 693.96873095067 1089.42150359292 694.96873095067 1063.52150359292 693.76873095067 1025.82150359292 C 692.96873095067 1001.92150359292 685.16873095067 946.42150359292 628.36873095067 946.42150359292 C 606.46873095067 946.42150359292 589.56873095067 954.32150359292 576.76873095067 970.52150359292 C 570.36873095067 978.62150359292 565.16873095067 988.62150359292 561.06873095067 1000.42150359292 C 577.16873095067 1017.12150359292 587.96873095067 1039.82150359292 592.56873095067 1066.82150359292 C 593.86873095067 1074.42150359292 599.66873095067 1113.52150359292 584.06873095067 1132.02150359292 C 578.56873095067 1138.52150359292 571.26873095067 1141.92150359292 562.76873095067 1141.92150359292 C 553.56873095067 1141.92150359292 545.46873095067 1138.32150359292 539.26873095067 1131.42150359292 C 525.86873095067 1116.32150359292 522.16873095067 1084.82150359292 528.06873095067 1035.32150359292 C 529.16873095067 1025.92150359292 530.76873095067 1017.02150359292 532.76873095067 1008.72150359292 C 521.16873095067 1000.42150359292 507.46873095067 995.82150359292 494.26873095067 995.82150359292 C 481.06873095067 995.82150359292 467.36873095067 1000.52150359292 455.76873095067 1008.72150359292 C 457.76873095067 1017.02150359292 459.36873095067 1025.92150359292 460.46873095067 1035.32150359292 C 466.36873095067 1084.82150359292 462.76873095067 1116.22150359292 449.26873095067 1131.42150359292 C 443.16873095067 1138.32150359292 435.06873095067 1141.92150359292 425.76873095067 1141.92150359292 C 417.26873095067 1141.92150359292 409.96873095067 1138.52150359292 404.46873095067 1132.02150359292 C 388.86873095067 1113.52150359292 394.66873095067 1074.42150359292 395.96873095067 1066.82150359292 C 400.56873095067 1039.82150359292 411.46873095067 1017.12150359292 427.46873095067 1000.42150359292 C 423.36873095067 988.62150359292 418.16873095067 978.62150359292 411.76873095067 970.52150359292 C 398.96873095067 954.32150359292 382.06873095067 946.42150359292 360.16873095067 946.42150359292 C 303.36873095067 946.42150359292 295.46873095067 1001.92150359292 294.76873095067 1025.82150359292 C 293.56873095067 1063.52150359292 294.56873095067 1089.32150359292 297.26873095067 1143.62150359292 C 297.56873095067 1150.52150359292 292.36873095067 1156.32150359292 285.46873095067 1156.62150359292 C 278.56873095067 1157.02150359292 272.76873095067 1151.72150359292 272.46873095067 1144.82150359292 C 269.76873095067 1091.02150359292 268.76873095067 1063.42150359292 269.96873095067 1025.02150359292 C 271.96873095067 961.22150359292 306.56873095067 921.52150359292 360.26873095067 921.52150359292 C 389.86873095067 921.52150359292 413.86873095067 932.82150359292 431.36873095067 955.12150359292 C 437.86873095067 963.42150359292 443.46873095067 973.12150359292 447.96873095067 984.12150359292 C 462.26873095067 975.62150359292 478.46873095067 970.92150359292 494.26873095067 970.92150359292 C 509.96873095067 970.92150359292 526.26873095067 975.62150359292 540.56873095067 984.12150359292 C 545.06873095067 973.12150359292 550.56873095067 963.42150359292 557.16873095067 955.12150359292 C 574.76873095067 932.82150359292 598.66873095067 921.52150359292 628.26873095067 921.52150359292 C 681.96873095067 921.52150359292 716.46873095067 961.22150359292 718.56873095067 1025.02150359292 C 719.76873095067 1063.42150359292 718.76873095067 1091.02150359292 716.06873095067 1144.82150359292 C 715.76873095067 1151.42150359292 710.26873095067 1156.62150359292 703.66873095067 1156.62150359292 Z M 553.76873095067 1031.32150359292 C 553.46873095067 1033.62150359292 553.16873095067 1035.92150359292 552.86873095067 1038.22150359292 C 545.96873095067 1096.12150359292 554.96873095067 1111.52150359292 557.96873095067 1114.82150359292 C 559.36873095067 1116.42150359292 560.66873095067 1117.02150359292 562.86873095067 1117.02150359292 C 563.96873095067 1117.02150359292 564.46873095067 1116.82150359292 565.16873095067 1115.92150359292 C 570.06873095067 1110.02150359292 571.46873095067 1089.92150359292 568.16873095067 1070.92150359292 C 565.46873095067 1055.92150359292 560.56873095067 1042.52150359292 553.76873095067 1031.32150359292 Z M 434.96873095067 1031.32150359292 C 428.06873095067 1042.42150359292 423.26873095067 1055.82150359292 420.56873095067 1071.02150359292 C 417.26873095067 1089.92150359292 418.66873095067 1110.12150359292 423.56873095067 1116.02150359292 C 424.26873095067 1116.82150359292 424.76873095067 1117.12150359292 425.86873095067 1117.12150359292 C 427.96873095067 1117.12150359292 429.36873095067 1116.52150359292 430.76873095067 1114.92150359292 C 433.66873095067 1111.62150359292 442.76873095067 1096.22150359292 435.86873095067 1038.32150359292 C 435.66873095067 1035.92150359292 435.36873095067 1033.62150359292 434.96873095067 1031.32150359292 Z"/><path id="text" transform="matrix(0.6238414246311105 0 0 0.6238414246311105 274.2396457237299 26.262864684824223)" d="M 255.05241639709 740.65910802237 L 241.13241639709 740.65910802237 L 237.29241639709 728.85110802237 L 214.34841639709 728.85110802237 L 210.60441639709 740.65910802237 L 196.68441639709 740.65910802237 L 218.57241639709 678.06710802237 C 219.53241639709 675.89110802237 220.60441639709 674.38710802237 221.78841639709 673.55510802237 C 222.97241639709 672.72310802237 224.42841639709 672.30710802237 226.15641639709 672.30710802237 C 227.88441639709 672.30710802237 229.27641639709 672.69110802237 230.33241639709 673.45910802237 C 231.38841639709 674.22710802237 232.33241639709 675.76310802237 233.16441639709 678.06710802237 L 255.05241639709 740.65910802237 Z M 234.22041639709 717.61910802237 L 226.15641639709 690.54710802237 L 217.70841639709 717.61910802237 L 234.22041639709 717.61910802237 Z M 316.30041639709 740.65910802237 L 302.38041639709 740.65910802237 L 298.54041639709 728.85110802237 L 275.59641639709 728.85110802237 L 271.85241639709 740.65910802237 L 257.93241639709 740.65910802237 L 279.82041639709 678.06710802237 C 280.78041639709 675.89110802237 281.85241639709 674.38710802237 283.03641639709 673.55510802237 C 284.22041639709 672.72310802237 285.67641639709 672.30710802237 287.40441639709 672.30710802237 C 289.13241639709 672.30710802237 290.52441639709 672.69110802237 291.58041639709 673.45910802237 C 292.63641639709 674.22710802237 293.58041639709 675.76310802237 294.41241639709 678.06710802237 L 316.30041639709 740.65910802237 Z M 295.46841639709 717.61910802237 L 287.40441639709 690.54710802237 L 278.95641639709 717.61910802237 L 295.46841639709 717.61910802237 Z M 376.49241639709 740.65910802237 L 363.14841639709 740.65910802237 L 363.14841639709 713.01110802237 L 338.09241639709 713.01110802237 L 338.09241639709 740.65910802237 L 324.74841639709 740.65910802237 L 324.74841639709 672.30710802237 L 338.09241639709 672.30710802237 L 338.09241639709 701.20310802237 L 363.14841639709 701.20310802237 L 363.14841639709 672.30710802237 L 376.49241639709 672.30710802237 L 376.49241639709 740.65910802237 Z M 443.30841639709 740.65910802237 L 429.38841639709 740.65910802237 L 425.54841639709 728.85110802237 L 402.60441639709 728.85110802237 L 398.86041639709 740.65910802237 L 384.94041639709 740.65910802237 L 406.82841639709 678.06710802237 C 407.78841639709 675.89110802237 408.86041639709 674.38710802237 410.04441639709 673.55510802237 C 411.22841639709 672.72310802237 412.68441639709 672.30710802237 414.41241639709 672.30710802237 C 416.14041639709 672.30710802237 417.53241639709 672.69110802237 418.58841639709 673.45910802237 C 419.64441639709 674.22710802237 420.58841639709 675.76310802237 421.42041639709 678.06710802237 L 443.30841639709 740.65910802237 Z M 422.47641639709 717.61910802237 L 414.41241639709 690.54710802237 L 405.96441639709 717.61910802237 L 422.47641639709 717.61910802237 Z M 505.99641639709 672.30710802237 L 505.99641639709 733.74710802237 C 505.99641639709 735.85910802237 505.35641639709 737.66710802237 504.07641639709 739.17110802237 C 502.79641639709 740.67510802237 501.29241639709 741.42710802237 499.56441639709 741.42710802237 C 495.14841639709 741.42710802237 491.53241639709 738.86710802237 488.71641639709 733.74710802237 L 465.10041639709 696.78710802237 L 465.10041639709 740.65910802237 L 451.75641639709 740.65910802237 L 451.75641639709 672.30710802237 L 464.62041639709 672.30710802237 L 492.65241639709 717.04310802237 L 492.65241639709 672.30710802237 L 505.99641639709 672.30710802237 Z"/><path id="text" transform="matrix(0.31192071231555524 0 0 0.31192071231555524 274.2714616363861 87.71873110808417)" d="M 397.01683279418 1481.31821604474 L 394.04083279418 1481.31821604474 C 393.33683279418 1481.31821604474 393.11283279418 1480.93421604474 393.36883279418 1480.16621604474 L 412.47283279418 1420.74221604474 C 412.66483279418 1419.97421604474 413.11283279418 1419.59021604474 413.81683279418 1419.59021604474 L 418.32883279418 1419.59021604474 C 418.96883279418 1419.59021604474 419.41683279418 1419.97421604474 419.67283279418 1420.74221604474 L 438.77683279418 1480.16621604474 C 438.96883279418 1480.93421604474 438.74483279418 1481.31821604474 438.10483279418 1481.31821604474 L 435.03283279418 1481.31821604474 C 434.39283279418 1481.31821604474 433.97683279418 1480.93421604474 433.78483279418 1480.16621604474 L 428.60083279418 1464.80621604474 L 403.44883279418 1464.80621604474 L 398.26483279418 1480.16621604474 C 398.00883279418 1480.93421604474 397.59283279418 1481.31821604474 397.01683279418 1481.31821604474 Z M 415.83283279418 1424.87021604474 L 404.79283279418 1460.48621604474 L 427.35283279418 1460.48621604474 L 416.21683279418 1424.87021604474 L 415.83283279418 1424.87021604474 Z M 464.69683279418 1481.31821604474 L 447.99283279418 1481.31821604474 C 447.28883279418 1481.31821604474 446.93683279418 1480.96621604474 446.93683279418 1480.26221604474 L 446.93683279418 1478.05421604475 C 446.93683279418 1477.41421604474 447.28883279418 1477.09421604474 447.99283279418 1477.09421604474 L 464.21683279418 1477.09421604474 C 469.97683279418 1477.09421604474 472.85683279418 1474.85421604474 472.85683279418 1470.37421604474 L 472.85683279418 1468.07021604474 C 472.85683279418 1463.91021604475 471.06483279418 1461.19021604474 467.48083279418 1459.91021604475 L 455.48083279418 1455.30221604474 C 452.21683279418 1454.02221604474 449.89683279418 1452.51821604474 448.52083279418 1450.79021604474 C 447.14483279418 1449.06221604474 446.45683279418 1446.66221604474 446.45683279418 1443.59021604474 C 446.45683279418 1436.10221604475 450.58483279418 1432.35821604474 458.84083279418 1432.35821604474 L 474.39283279418 1432.35821604474 C 475.09683279418 1432.35821604474 475.44883279418 1432.71021604474 475.44883279418 1433.41421604474 L 475.44883279418 1435.62221604475 C 475.44883279418 1436.26221604474 475.09683279418 1436.58221604474 474.39283279418 1436.58221604474 L 459.32083279418 1436.58221604474 C 456.69683279418 1436.58221604474 454.72883279418 1437.15821604474 453.41683279418 1438.31021604474 C 452.10483279418 1439.46221604474 451.44883279418 1440.80621604474 451.44883279418 1442.34221604475 L 451.44883279418 1444.55021604474 C 451.44883279418 1446.34221604475 451.94483279418 1447.75021604474 452.93683279418 1448.77421604474 C 453.92883279418 1449.79821604474 455.44883279418 1450.66221604474 457.49683279418 1451.36621604474 L 469.49683279418 1456.16621604474 C 472.82483279418 1457.25421604474 475.04883279418 1458.87021604474 476.16883279418 1461.01421604474 C 477.28883279418 1463.15821604474 477.84883279418 1466.15021604475 477.84883279418 1469.99021604474 C 477.84883279418 1473.83021604474 476.77683279418 1476.67821604474 474.63283279418 1478.53421604474 C 472.48883279418 1480.39021604474 469.17683279418 1481.31821604474 464.69683279418 1481.31821604474 Z M 493.97683279418 1495.62221604475 L 491.19283279418 1495.62221604475 C 490.55283279418 1495.62221604475 490.23283279418 1495.27021604474 490.23283279418 1494.56621604474 L 490.23283279418 1433.51021604474 C 490.23283279418 1432.74221604474 490.55283279418 1432.35821604474 491.19283279418 1432.35821604474 L 493.97683279418 1432.35821604474 C 494.68083279418 1432.35821604474 495.03283279418 1432.74221604474 495.03283279418 1433.51021604474 L 495.03283279418 1437.35021604474 L 495.41683279418 1437.35021604474 C 497.20883279418 1434.02221604474 500.53683279418 1432.35821604474 505.40083279418 1432.35821604474 L 511.92883279418 1432.35821604474 C 516.02483279418 1432.35821604474 519.25683279418 1433.57421604475 521.62483279418 1436.00621604475 C 523.99283279418 1438.43821604474 525.17683279418 1441.76621604475 525.17683279418 1445.99021604474 L 525.17683279418 1467.68621604474 C 525.17683279418 1471.91021604475 523.99283279418 1475.23821604474 521.62483279418 1477.67021604475 C 519.25683279418 1480.10221604475 516.02483279418 1481.31821604474 511.92883279418 1481.31821604474 L 505.40083279418 1481.31821604474 C 500.53683279418 1481.31821604474 497.20883279418 1479.65421604474 495.41683279418 1476.32621604474 L 495.03283279418 1476.32621604474 L 495.03283279418 1494.56621604474 C 495.03283279418 1495.27021604474 494.68083279418 1495.62221604475 493.97683279418 1495.62221604475 Z M 504.92083279418 1476.99821604474 L 511.25683279418 1476.99821604474 C 514.20083279418 1476.99821604474 516.45683279418 1476.18221604474 518.02483279418 1474.55021604474 C 519.59283279418 1472.91821604474 520.37683279418 1470.56621604474 520.37683279418 1467.49421604474 L 520.37683279418 1446.18221604474 C 520.37683279418 1443.11021604474 519.59283279418 1440.75821604474 518.02483279418 1439.12621604474 C 516.45683279418 1437.49421604474 514.20083279418 1436.67821604474 511.25683279418 1436.67821604474 L 504.92083279418 1436.67821604474 C 501.84883279418 1436.67821604474 499.43283279418 1437.49421604474 497.67283279418 1439.12621604474 C 495.91283279418 1440.75821604474 495.03283279418 1443.07821604474 495.03283279418 1446.08621604474 L 495.03283279418 1467.59021604474 C 495.03283279418 1470.59821604474 495.91283279418 1472.91821604474 497.67283279418 1474.55021604474 C 499.43283279418 1476.18221604474 501.84883279418 1476.99821604474 504.92083279418 1476.99821604474 Z M 539.09683279418 1424.29421604474 L 539.09683279418 1415.07821604474 C 539.09683279418 1414.37421604474 539.41683279418 1414.02221604474 540.05683279418 1414.02221604474 L 542.93683279418 1414.02221604474 C 543.57683279418 1414.02221604474 543.89683279418 1414.37421604474 543.89683279418 1415.07821604474 L 543.89683279418 1424.29421604474 C 543.89683279418 1425.06221604474 543.57683279418 1425.44621604474 542.93683279418 1425.44621604474 L 540.05683279418 1425.44621604474 C 539.41683279418 1425.44621604474 539.09683279418 1425.06221604474 539.09683279418 1424.29421604474 Z M 539.09683279418 1480.16621604474 L 539.09683279418 1433.51021604474 C 539.09683279418 1432.74221604474 539.41683279418 1432.35821604474 540.05683279418 1432.35821604474 L 542.84083279418 1432.35821604474 C 543.54483279418 1432.35821604474 543.89683279418 1432.74221604474 543.89683279418 1433.51021604474 L 543.89683279418 1480.16621604474 C 543.89683279418 1480.93421604474 543.57683279418 1481.31821604474 542.93683279418 1481.31821604474 L 540.05683279418 1481.31821604474 C 539.41683279418 1481.31821604474 539.09683279418 1480.93421604474 539.09683279418 1480.16621604474 Z M 562.52083279418 1481.31821604474 L 559.73683279418 1481.31821604474 C 559.09683279418 1481.31821604474 558.77683279418 1480.93421604474 558.77683279418 1480.16621604474 L 558.77683279418 1433.51021604474 C 558.77683279418 1432.74221604474 559.09683279418 1432.35821604474 559.73683279418 1432.35821604474 L 562.52083279418 1432.35821604474 C 563.22483279418 1432.35821604474 563.57683279418 1432.74221604474 563.57683279418 1433.51021604474 L 563.57683279418 1437.54221604474 L 563.96083279418 1437.54221604474 C 564.66483279418 1436.19821604475 565.91283279418 1434.99821604474 567.70483279418 1433.94221604474 C 569.49683279418 1432.88621604474 571.70483279418 1432.35821604474 574.32883279418 1432.35821604474 L 578.07283279418 1432.35821604474 C 578.77683279418 1432.35821604474 579.12883279418 1432.71021604474 579.12883279418 1433.41421604474 L 579.12883279418 1435.71821604475 C 579.12883279418 1436.42221604474 578.77683279418 1436.74221604474 578.07283279418 1436.67821604474 L 573.56083279418 1436.67821604474 C 570.42483279418 1436.67821604474 567.97683279418 1437.63821604474 566.21683279418 1439.55821604474 C 564.45683279418 1441.47821604474 563.57683279418 1444.07021604474 563.57683279418 1447.33421604474 L 563.57683279418 1480.16621604474 C 563.57683279418 1480.93421604474 563.22483279418 1481.31821604474 562.52083279418 1481.31821604474 Z M 589.30483279418 1424.29421604474 L 589.30483279418 1415.07821604474 C 589.30483279418 1414.37421604474 589.62483279418 1414.02221604474 590.26483279418 1414.02221604474 L 593.14483279418 1414.02221604474 C 593.78483279418 1414.02221604474 594.10483279418 1414.37421604474 594.10483279418 1415.07821604474 L 594.10483279418 1424.29421604474 C 594.10483279418 1425.06221604474 593.78483279418 1425.44621604474 593.14483279418 1425.44621604474 L 590.26483279418 1425.44621604474 C 589.62483279418 1425.44621604474 589.30483279418 1425.06221604474 589.30483279418 1424.29421604474 Z M 589.30483279418 1480.16621604474 L 589.30483279418 1433.51021604474 C 589.30483279418 1432.74221604474 589.62483279418 1432.35821604474 590.26483279418 1432.35821604474 L 593.04883279418 1432.35821604474 C 593.75283279418 1432.35821604474 594.10483279418 1432.74221604474 594.10483279418 1433.51021604474 L 594.10483279418 1480.16621604474 C 594.10483279418 1480.93421604474 593.78483279418 1481.31821604474 593.14483279418 1481.31821604474 L 590.26483279418 1481.31821604474 C 589.62483279418 1481.31821604474 589.30483279418 1480.93421604474 589.30483279418 1480.16621604474 Z M 612.72883279418 1481.31821604474 L 609.94483279418 1481.31821604474 C 609.30483279418 1481.31821604474 608.98483279418 1480.93421604474 608.98483279418 1480.16621604474 L 608.98483279418 1433.51021604474 C 608.98483279418 1432.74221604474 609.30483279418 1432.35821604474 609.94483279418 1432.35821604474 L 612.72883279418 1432.35821604474 C 613.43283279418 1432.35821604474 613.78483279418 1432.74221604474 613.78483279418 1433.51021604474 L 613.78483279418 1437.35021604474 L 614.16883279418 1437.35021604474 C 615.96083279418 1434.02221604474 619.28883279418 1432.35821604474 624.15283279418 1432.35821604474 L 630.48883279418 1432.35821604474 C 634.58483279418 1432.35821604474 637.81683279418 1433.57421604475 640.18483279418 1436.00621604475 C 642.55283279418 1438.43821604474 643.73683279418 1441.76621604475 643.73683279418 1445.99021604474 L 643.73683279418 1480.16621604474 C 643.73683279418 1480.93421604474 643.41683279418 1481.31821604474 642.77683279418 1481.31821604474 L 639.99283279418 1481.31821604474 C 639.28883279418 1481.31821604474 638.93683279418 1480.93421604474 638.93683279418 1480.16621604474 L 638.93683279418 1446.18221604474 C 638.93683279418 1443.17421604474 638.16883279418 1440.83821604474 636.63283279418 1439.17421604474 C 635.09683279418 1437.51021604474 632.85683279418 1436.67821604474 629.91283279418 1436.67821604474 L 623.67283279418 1436.67821604474 C 620.60083279418 1436.67821604474 618.18483279418 1437.49421604474 616.42483279418 1439.12621604474 C 614.66483279418 1440.75821604474 613.78483279418 1443.07821604474 613.78483279418 1446.08621604474 L 613.78483279418 1480.16621604474 C 613.78483279418 1480.93421604474 613.43283279418 1481.31821604474 612.72883279418 1481.31821604474 Z M 676.66483279418 1478.53421604474 L 670.42483279418 1478.53421604474 C 666.32883279418 1478.53421604474 663.08083279418 1477.31821604474 660.68083279418 1474.88621604474 C 658.28083279418 1472.45421604474 657.08083279418 1469.15821604474 657.08083279418 1464.99821604474 L 657.08083279418 1445.99021604474 C 657.08083279418 1441.76621604475 658.28083279418 1438.43821604474 660.68083279418 1436.00621604475 C 663.08083279418 1433.57421604475 666.36083279418 1432.35821604474 670.52083279418 1432.35821604474 L 690.87283279418 1432.35821604474 C 691.57683279418 1432.35821604474 691.92883279418 1432.74221604474 691.92883279418 1433.51021604474 L 691.92883279418 1481.12621604474 C 691.92883279418 1485.35021604474 690.71283279418 1488.67821604474 688.28083279418 1491.11021604474 C 685.84883279418 1493.54221604474 682.55283279418 1494.75821604474 678.39283279418 1494.75821604474 L 660.92083279418 1494.75821604474 C 660.21683279418 1494.75821604474 659.86483279418 1494.40621604474 659.86483279418 1493.70221604474 L 659.86483279418 1491.39821604474 C 659.86483279418 1490.75821604474 660.21683279418 1490.43821604474 660.92083279418 1490.43821604474 L 678.00883279418 1490.43821604474 C 680.95283279418 1490.43821604474 683.19283279418 1489.62221604475 684.72883279418 1487.99021604474 C 686.26483279418 1486.35821604474 687.03283279418 1484.00621604475 687.03283279418 1480.93421604474 L 687.03283279418 1473.54221604474 L 686.64883279418 1473.54221604474 C 685.04883279418 1476.87021604474 681.72083279418 1478.53421604474 676.66483279418 1478.53421604474 Z M 687.03283279418 1464.80621604474 L 687.03283279418 1437.54221604474 C 687.03283279418 1436.96621604474 686.74483279418 1436.67821604474 686.16883279418 1436.67821604474 L 671.00083279418 1436.67821604474 C 668.05683279418 1436.67821604474 665.80083279418 1437.49421604474 664.23283279418 1439.12621604474 C 662.66483279418 1440.75821604474 661.88083279418 1443.11021604474 661.88083279418 1446.18221604474 L 661.88083279418 1464.80621604474 C 661.88083279418 1467.81421604475 662.66483279418 1470.13421604474 664.23283279418 1471.76621604475 C 665.80083279418 1473.39821604474 668.05683279418 1474.21421604474 671.00083279418 1474.21421604474 L 677.14483279418 1474.21421604474 C 680.21683279418 1474.21421604474 682.63283279418 1473.39821604474 684.39283279418 1471.76621604475 C 686.15283279418 1470.13421604474 687.03283279418 1467.81421604475 687.03283279418 1464.80621604474 Z M 731.19283279418 1481.31821604474 L 728.21683279418 1481.31821604474 C 727.51283279418 1481.31821604474 727.28883279418 1480.93421604474 727.54483279418 1480.16621604474 L 746.64883279418 1420.74221604474 C 746.84083279418 1419.97421604474 747.28883279418 1419.59021604474 747.99283279418 1419.59021604474 L 752.50483279418 1419.59021604474 C 753.14483279418 1419.59021604474 753.59283279418 1419.97421604474 753.84883279418 1420.74221604474 L 772.95283279418 1480.16621604474 C 773.14483279418 1480.93421604474 772.92083279418 1481.31821604474 772.28083279418 1481.31821604474 L 769.20883279418 1481.31821604474 C 768.56883279418 1481.31821604474 768.15283279418 1480.93421604474 767.96083279418 1480.16621604474 L 762.77683279418 1464.80621604474 L 737.62483279418 1464.80621604474 L 732.44083279418 1480.16621604474 C 732.18483279418 1480.93421604474 731.76883279418 1481.31821604474 731.19283279418 1481.31821604474 Z M 750.00883279418 1424.87021604474 L 738.96883279418 1460.48621604474 L 761.52883279418 1460.48621604474 L 750.39283279418 1424.87021604474 L 750.00883279418 1424.87021604474 Z M 783.51283279418 1424.29421604474 L 783.51283279418 1415.07821604474 C 783.51283279418 1414.37421604474 783.83283279418 1414.02221604474 784.47283279418 1414.02221604474 L 787.35283279418 1414.02221604474 C 787.99283279418 1414.02221604474 788.31283279418 1414.37421604474 788.31283279418 1415.07821604474 L 788.31283279418 1424.29421604474 C 788.31283279418 1425.06221604474 787.99283279418 1425.44621604474 787.35283279418 1425.44621604474 L 784.47283279418 1425.44621604474 C 783.83283279418 1425.44621604474 783.51283279418 1425.06221604474 783.51283279418 1424.29421604474 Z M 783.51283279418 1480.16621604474 L 783.51283279418 1433.51021604474 C 783.51283279418 1432.74221604474 783.83283279418 1432.35821604474 784.47283279418 1432.35821604474 L 787.25683279418 1432.35821604474 C 787.96083279418 1432.35821604474 788.31283279418 1432.74221604474 788.31283279418 1433.51021604474 L 788.31283279418 1480.16621604474 C 788.31283279418 1480.93421604474 787.99283279418 1481.31821604474 787.35283279418 1481.31821604474 L 784.47283279418 1481.31821604474 C 783.83283279418 1481.31821604474 783.51283279418 1480.93421604474 783.51283279418 1480.16621604474 Z M 821.91283279418 1481.31821604474 L 815.48083279418 1481.31821604474 C 811.38483279418 1481.31821604474 808.15283279418 1480.10221604475 805.78483279418 1477.67021604475 C 803.41683279418 1475.23821604474 802.23283279418 1471.91021604475 802.23283279418 1467.68621604474 L 802.23283279418 1445.99021604474 C 802.23283279418 1441.76621604475 803.41683279418 1438.43821604474 805.78483279418 1436.00621604475 C 808.15283279418 1433.57421604475 811.38483279418 1432.35821604474 815.48083279418 1432.35821604474 L 821.91283279418 1432.35821604474 C 826.84083279418 1432.35821604474 830.20083279418 1434.02221604474 831.99283279418 1437.35021604474 L 832.37683279418 1437.35021604474 L 832.37683279418 1414.98221604474 C 832.37683279418 1414.21421604474 832.69683279418 1413.83021604474 833.33683279418 1413.83021604474 L 836.12083279418 1413.83021604474 C 836.82483279418 1413.83021604474 837.17683279418 1414.21421604474 837.17683279418 1414.98221604474 L 837.17683279418 1480.16621604474 C 837.17683279418 1480.93421604474 836.82483279418 1481.31821604474 836.12083279418 1481.31821604474 L 833.33683279418 1481.31821604474 C 832.69683279418 1481.31821604474 832.37683279418 1480.93421604474 832.37683279418 1480.16621604474 L 832.37683279418 1476.32621604474 L 831.99283279418 1476.32621604474 C 830.20083279418 1479.65421604474 826.84083279418 1481.31821604474 821.91283279418 1481.31821604474 Z M 832.37683279418 1467.59021604474 L 832.37683279418 1446.08621604474 C 832.37683279418 1443.07821604474 831.49683279418 1440.75821604474 829.73683279418 1439.12621604474 C 827.97683279418 1437.49421604474 825.56083279418 1436.67821604474 822.48883279418 1436.67821604474 L 816.05683279418 1436.67821604474 C 813.11283279418 1436.67821604474 810.87283279418 1437.51021604474 809.33683279418 1439.17421604474 C 807.80083279418 1440.83821604474 807.03283279418 1443.17421604474 807.03283279418 1446.18221604474 L 807.03283279418 1467.49421604474 C 807.03283279418 1470.50221604474 807.80083279418 1472.83821604474 809.33683279418 1474.50221604474 C 810.87283279418 1476.16621604474 813.11283279418 1476.99821604474 816.05683279418 1476.99821604474 L 822.48883279418 1476.99821604474 C 825.56083279418 1476.99821604474 827.97683279418 1476.18221604474 829.73683279418 1474.55021604474 C 831.49683279418 1472.91821604474 832.37683279418 1470.59821604474 832.37683279418 1467.59021604474 Z M 881.91283279418 1481.31821604474 L 879.12883279418 1481.31821604474 C 878.48883279418 1481.31821604474 878.16883279418 1480.93421604474 878.16883279418 1480.16621604474 L 878.16883279418 1420.74221604474 C 878.16883279418 1419.97421604474 878.48883279418 1419.59021604474 879.12883279418 1419.59021604474 L 908.69683279418 1419.59021604474 C 909.46483279418 1419.59021604474 909.84883279418 1419.94221604474 909.84883279418 1420.64621604474 L 909.84883279418 1422.85421604474 C 909.84883279418 1423.55821604474 909.46483279418 1423.91021604475 908.69683279418 1423.91021604475 L 883.92883279418 1423.91021604475 C 883.28883279418 1423.91021604475 882.96883279418 1424.19821604475 882.96883279418 1424.77421604474 L 882.96883279418 1448.10221604475 C 882.96883279418 1448.61421604474 883.28883279418 1448.87021604474 883.92883279418 1448.87021604474 L 906.10483279418 1448.87021604474 C 906.80883279418 1448.87021604474 907.16083279418 1449.22221604474 907.16083279418 1449.92621604474 L 907.16083279418 1452.23021604474 C 907.16083279418 1452.93421604474 906.80883279418 1453.28621604474 906.10483279418 1453.28621604474 L 883.92883279418 1453.28621604474 C 883.28883279418 1453.28621604474 882.96883279418 1453.54221604474 882.96883279418 1454.05421604475 L 882.96883279418 1480.16621604474 C 882.96883279418 1480.93421604474 882.61683279418 1481.31821604474 881.91283279418 1481.31821604474 Z M 942.00883279418 1481.31821604474 L 933.75283279418 1481.31821604474 C 929.59283279418 1481.31821604474 926.31283279418 1480.10221604475 923.91283279418 1477.67021604475 C 921.51283279418 1475.23821604474 920.31283279418 1471.91021604475 920.31283279418 1467.68621604474 L 920.31283279418 1445.99021604474 C 920.31283279418 1441.76621604475 921.51283279418 1438.43821604474 923.91283279418 1436.00621604475 C 926.31283279418 1433.57421604475 929.59283279418 1432.35821604474 933.75283279418 1432.35821604474 L 942.00883279418 1432.35821604474 C 946.16883279418 1432.35821604474 949.46483279418 1433.57421604475 951.89683279418 1436.00621604475 C 954.32883279418 1438.43821604474 955.54483279418 1441.76621604475 955.54483279418 1445.99021604474 L 955.54483279418 1467.68621604474 C 955.54483279418 1471.91021604475 954.32883279418 1475.23821604474 951.89683279418 1477.67021604475 C 949.46483279418 1480.10221604475 946.16883279418 1481.31821604474 942.00883279418 1481.31821604474 Z M 934.13683279418 1476.99821604474 L 941.62483279418 1476.99821604474 C 944.56883279418 1476.99821604474 946.82483279418 1476.18221604474 948.39283279418 1474.55021604474 C 949.96083279418 1472.91821604474 950.74483279418 1470.59821604474 950.74483279418 1467.59021604474 L 950.74483279418 1446.08621604474 C 950.74483279418 1443.07821604474 949.96083279418 1440.75821604474 948.39283279418 1439.12621604474 C 946.82483279418 1437.49421604474 944.56883279418 1436.67821604474 941.62483279418 1436.67821604474 L 934.13683279418 1436.67821604474 C 931.19283279418 1436.67821604474 928.95283279418 1437.49421604474 927.41683279418 1439.12621604474 C 925.88083279418 1440.75821604474 925.11283279418 1443.07821604474 925.11283279418 1446.08621604474 L 925.11283279418 1467.59021604474 C 925.11283279418 1470.59821604474 925.88083279418 1472.91821604474 927.41683279418 1474.55021604474 C 928.95283279418 1476.18221604474 931.19283279418 1476.99821604474 934.13683279418 1476.99821604474 Z M 972.63283279418 1481.31821604474 L 969.84883279418 1481.31821604474 C 969.20883279418 1481.31821604474 968.88883279418 1480.93421604474 968.88883279418 1480.16621604474 L 968.88883279418 1433.51021604474 C 968.88883279418 1432.74221604474 969.20883279418 1432.35821604474 969.84883279418 1432.35821604474 L 972.63283279418 1432.35821604474 C 973.33683279418 1432.35821604474 973.68883279418 1432.74221604474 973.68883279418 1433.51021604474 L 973.68883279418 1437.54221604474 L 974.07283279418 1437.54221604474 C 974.77683279418 1436.19821604475 976.02483279418 1434.99821604474 977.81683279418 1433.94221604474 C 979.60883279418 1432.88621604474 981.81683279418 1432.35821604474 984.44083279418 1432.35821604474 L 988.18483279418 1432.35821604474 C 988.88883279418 1432.35821604474 989.24083279418 1432.71021604474 989.24083279418 1433.41421604474 L 989.24083279418 1435.71821604475 C 989.24083279418 1436.42221604474 988.88883279418 1436.74221604474 988.18483279418 1436.67821604474 L 983.67283279418 1436.67821604474 C 980.53683279418 1436.67821604474 978.08883279418 1437.63821604474 976.32883279418 1439.55821604474 C 974.56883279418 1441.47821604474 973.68883279418 1444.07021604474 973.68883279418 1447.33421604474 L 973.68883279418 1480.16621604474 C 973.68883279418 1480.93421604474 973.33683279418 1481.31821604474 972.63283279418 1481.31821604474 Z M 1029.27283279418 1481.31821604474 L 1026.48883279418 1481.31821604474 C 1025.84883279418 1481.31821604474 1025.52883279418 1480.93421604474 1025.52883279418 1480.16621604474 L 1025.52883279418 1420.74221604474 C 1025.52883279418 1419.97421604474 1025.84883279418 1419.59021604474 1026.48883279418 1419.59021604474 L 1029.27283279418 1419.59021604474 C 1029.97683279418 1419.59021604474 1030.32883279418 1419.97421604474 1030.32883279418 1420.74221604474 L 1030.32883279418 1446.95021604474 C 1030.32883279418 1447.52621604474 1030.64883279418 1447.81421604475 1031.28883279418 1447.81421604475 L 1058.16883279418 1447.81421604475 C 1058.80883279418 1447.81421604475 1059.12883279418 1447.52621604474 1059.12883279418 1446.95021604474 L 1059.12883279418 1420.74221604474 C 1059.12883279418 1419.97421604474 1059.44883279418 1419.59021604474 1060.08883279418 1419.59021604474 L 1062.87283279418 1419.59021604474 C 1063.57683279418 1419.59021604474 1063.92883279418 1419.97421604474 1063.92883279418 1420.74221604474 L 1063.92883279418 1480.16621604474 C 1063.92883279418 1480.93421604474 1063.57683279418 1481.31821604474 1062.87283279418 1481.31821604474 L 1060.08883279418 1481.31821604474 C 1059.44883279418 1481.31821604474 1059.12883279418 1480.93421604474 1059.12883279418 1480.16621604474 L 1059.12883279418 1452.99821604474 C 1059.12883279418 1452.42221604474 1058.80883279418 1452.13421604474 1058.16883279418 1452.13421604474 L 1031.28883279418 1452.13421604474 C 1030.64883279418 1452.13421604474 1030.32883279418 1452.42221604474 1030.32883279418 1452.99821604474 L 1030.32883279418 1480.16621604474 C 1030.32883279418 1480.93421604474 1029.97683279418 1481.31821604474 1029.27283279418 1481.31821604474 Z M 1098.39283279418 1481.31821604474 L 1092.05683279418 1481.31821604474 C 1087.96083279418 1481.31821604474 1084.72883279418 1480.10221604475 1082.36083279418 1477.67021604475 C 1079.99283279418 1475.23821604474 1078.80883279418 1471.91021604475 1078.80883279418 1467.68621604474 L 1078.80883279418 1433.51021604474 C 1078.80883279418 1432.74221604474 1079.12883279418 1432.35821604474 1079.76883279418 1432.35821604474 L 1082.55283279418 1432.35821604474 C 1083.25683279418 1432.35821604474 1083.60883279418 1432.74221604474 1083.60883279418 1433.51021604474 L 1083.60883279418 1467.49421604474 C 1083.60883279418 1470.50221604474 1084.37683279418 1472.83821604474 1085.91283279418 1474.50221604474 C 1087.44883279418 1476.16621604474 1089.68883279418 1476.99821604474 1092.63283279418 1476.99821604474 L 1098.87283279418 1476.99821604474 C 1101.94483279418 1476.99821604474 1104.36083279418 1476.18221604474 1106.12083279418 1474.55021604474 C 1107.88083279418 1472.91821604474 1108.76083279418 1470.59821604474 1108.76083279418 1467.59021604474 L 1108.76083279418 1433.51021604474 C 1108.76083279418 1432.74221604474 1109.11283279418 1432.35821604474 1109.81683279418 1432.35821604474 L 1112.60083279418 1432.35821604474 C 1113.24083279418 1432.35821604474 1113.56083279418 1432.74221604474 1113.56083279418 1433.51021604474 L 1113.56083279418 1480.16621604474 C 1113.56083279418 1480.93421604474 1113.24083279418 1481.31821604474 1112.60083279418 1481.31821604474 L 1109.81683279418 1481.31821604474 C 1109.11283279418 1481.31821604474 1108.76083279418 1480.93421604474 1108.76083279418 1480.16621604474 L 1108.76083279418 1476.32621604474 L 1108.37683279418 1476.32621604474 C 1106.71283279418 1479.65421604474 1103.38483279418 1481.31821604474 1098.39283279418 1481.31821604474 Z M 1131.70483279418 1481.31821604474 L 1128.92083279418 1481.31821604474 C 1128.28083279418 1481.31821604474 1127.96083279418 1480.93421604474 1127.96083279418 1480.16621604474 L 1127.96083279418 1433.51021604474 C 1127.96083279418 1432.74221604474 1128.28083279418 1432.35821604474 1128.92083279418 1432.35821604474 L 1131.70483279418 1432.35821604474 C 1132.40883279418 1432.35821604474 1132.76083279418 1432.74221604474 1132.76083279418 1433.51021604474 L 1132.76083279418 1437.35021604474 L 1133.14483279418 1437.35021604474 C 1135.00083279418 1434.02221604474 1138.39283279418 1432.35821604474 1143.32083279418 1432.35821604474 L 1147.25683279418 1432.35821604474 C 1152.88883279418 1432.35821604474 1156.79283279418 1434.59821604474 1158.96883279418 1439.07821604474 C 1159.92883279418 1436.83821604474 1161.56083279418 1435.15821604474 1163.86483279418 1434.03821604474 C 1166.16883279418 1432.91821604474 1168.53683279418 1432.35821604474 1170.96883279418 1432.35821604474 L 1174.52083279418 1432.35821604474 C 1178.68083279418 1432.35821604474 1181.94483279418 1433.57421604475 1184.31283279418 1436.00621604475 C 1186.68083279418 1438.43821604474 1187.86483279418 1441.76621604475 1187.86483279418 1445.99021604474 L 1187.86483279418 1480.16621604474 C 1187.86483279418 1480.93421604474 1187.51283279418 1481.31821604474 1186.80883279418 1481.31821604474 L 1184.02483279418 1481.31821604474 C 1183.32083279418 1481.31821604474 1182.96883279418 1480.93421604474 1182.96883279418 1480.16621604474 L 1182.96883279418 1446.18221604474 C 1182.96883279418 1443.11021604474 1182.20083279418 1440.75821604474 1180.66483279418 1439.12621604474 C 1179.12883279418 1437.49421604474 1176.88883279418 1436.67821604474 1173.94483279418 1436.67821604474 L 1170.39283279418 1436.67821604474 C 1167.32083279418 1436.67821604474 1164.88883279418 1437.55821604474 1163.09683279418 1439.31821604474 C 1161.30483279418 1441.07821604474 1160.40883279418 1443.46221604474 1160.40883279418 1446.47021604474 L 1160.40883279418 1480.16621604474 C 1160.40883279418 1480.93421604474 1160.05683279418 1481.31821604474 1159.35283279418 1481.31821604474 L 1156.56883279418 1481.31821604474 C 1155.86483279418 1481.31821604474 1155.51283279418 1480.93421604474 1155.51283279418 1480.16621604474 L 1155.51283279418 1446.18221604474 C 1155.51283279418 1443.11021604474 1154.74483279418 1440.75821604474 1153.20883279418 1439.12621604474 C 1151.67283279418 1437.49421604474 1149.43283279418 1436.67821604474 1146.48883279418 1436.67821604474 L 1142.64883279418 1436.67821604474 C 1139.57683279418 1436.67821604474 1137.16083279418 1437.49421604474 1135.40083279418 1439.12621604474 C 1133.64083279418 1440.75821604474 1132.76083279418 1443.07821604474 1132.76083279418 1446.08621604474 L 1132.76083279418 1480.16621604474 C 1132.76083279418 1480.93421604474 1132.40883279418 1481.31821604474 1131.70483279418 1481.31821604474 Z M 1220.40883279418 1481.31821604474 L 1214.26483279418 1481.31821604474 C 1210.10483279418 1481.31821604474 1206.82483279418 1480.10221604475 1204.42483279418 1477.67021604475 C 1202.02483279418 1475.23821604474 1200.82483279418 1471.91021604475 1200.82483279418 1467.68621604474 L 1200.82483279418 1445.99021604474 C 1200.82483279418 1441.76621604475 1202.02483279418 1438.43821604474 1204.42483279418 1436.00621604475 C 1206.82483279418 1433.57421604475 1210.10483279418 1432.35821604474 1214.26483279418 1432.35821604474 L 1234.61683279418 1432.35821604474 C 1235.25683279418 1432.35821604474 1235.57683279418 1432.74221604474 1235.57683279418 1433.51021604474 L 1235.57683279418 1480.16621604474 C 1235.57683279418 1480.93421604474 1235.25683279418 1481.31821604474 1234.61683279418 1481.31821604474 L 1231.83283279418 1481.31821604474 C 1231.12883279418 1481.31821604474 1230.77683279418 1480.93421604474 1230.77683279418 1480.16621604474 L 1230.77683279418 1476.32621604474 L 1230.39283279418 1476.32621604474 C 1228.72883279418 1479.65421604474 1225.40083279418 1481.31821604474 1220.40883279418 1481.31821604474 Z M 1230.77683279418 1467.59021604474 L 1230.77683279418 1437.54221604474 C 1230.77683279418 1436.96621604474 1230.45683279418 1436.67821604474 1229.81683279418 1436.67821604474 L 1214.64883279418 1436.67821604474 C 1211.70483279418 1436.67821604474 1209.46483279418 1437.51021604474 1207.92883279418 1439.17421604474 C 1206.39283279418 1440.83821604474 1205.62483279418 1443.17421604474 1205.62483279418 1446.18221604474 L 1205.62483279418 1467.49421604474 C 1205.62483279418 1470.50221604474 1206.39283279418 1472.83821604474 1207.92883279418 1474.50221604474 C 1209.46483279418 1476.16621604474 1211.70483279418 1476.99821604474 1214.64883279418 1476.99821604474 L 1220.88883279418 1476.99821604474 C 1223.96083279418 1476.99821604474 1226.37683279418 1476.18221604474 1228.13683279418 1474.55021604474 C 1229.89683279418 1472.91821604474 1230.77683279418 1470.59821604474 1230.77683279418 1467.59021604474 Z M 1253.72083279418 1481.31821604474 L 1250.93683279418 1481.31821604474 C 1250.29683279418 1481.31821604474 1249.97683279418 1480.93421604474 1249.97683279418 1480.16621604474 L 1249.97683279418 1433.51021604474 C 1249.97683279418 1432.74221604474 1250.29683279418 1432.35821604474 1250.93683279418 1432.35821604474 L 1253.72083279418 1432.35821604474 C 1254.42483279418 1432.35821604474 1254.77683279418 1432.74221604474 1254.77683279418 1433.51021604474 L 1254.77683279418 1437.35021604474 L 1255.16083279418 1437.35021604474 C 1256.95283279418 1434.02221604474 1260.28083279418 1432.35821604474 1265.14483279418 1432.35821604474 L 1271.48083279418 1432.35821604474 C 1275.57683279418 1432.35821604474 1278.80883279418 1433.57421604475 1281.17683279418 1436.00621604475 C 1283.54483279418 1438.43821604474 1284.72883279418 1441.76621604475 1284.72883279418 1445.99021604474 L 1284.72883279418 1480.16621604474 C 1284.72883279418 1480.93421604474 1284.40883279418 1481.31821604474 1283.76883279418 1481.31821604474 L 1280.98483279418 1481.31821604474 C 1280.28083279418 1481.31821604474 1279.92883279418 1480.93421604474 1279.92883279418 1480.16621604474 L 1279.92883279418 1446.18221604474 C 1279.92883279418 1443.17421604474 1279.16083279418 1440.83821604474 1277.62483279418 1439.17421604474 C 1276.08883279418 1437.51021604474 1273.84883279418 1436.67821604474 1270.90483279418 1436.67821604474 L 1264.66483279418 1436.67821604474 C 1261.59283279418 1436.67821604474 1259.17683279418 1437.49421604474 1257.41683279418 1439.12621604474 C 1255.65683279418 1440.75821604474 1254.77683279418 1443.07821604474 1254.77683279418 1446.08621604474 L 1254.77683279418 1480.16621604474 C 1254.77683279418 1480.93421604474 1254.42483279418 1481.31821604474 1253.72083279418 1481.31821604474 Z M 1299.12883279418 1424.29421604474 L 1299.12883279418 1415.07821604474 C 1299.12883279418 1414.37421604474 1299.44883279418 1414.02221604474 1300.08883279418 1414.02221604474 L 1302.96883279418 1414.02221604474 C 1303.60883279418 1414.02221604474 1303.92883279418 1414.37421604474 1303.92883279418 1415.07821604474 L 1303.92883279418 1424.29421604474 C 1303.92883279418 1425.06221604474 1303.60883279418 1425.44621604474 1302.96883279418 1425.44621604474 L 1300.08883279418 1425.44621604474 C 1299.44883279418 1425.44621604474 1299.12883279418 1425.06221604474 1299.12883279418 1424.29421604474 Z M 1299.12883279418 1480.16621604474 L 1299.12883279418 1433.51021604474 C 1299.12883279418 1432.74221604474 1299.44883279418 1432.35821604474 1300.08883279418 1432.35821604474 L 1302.87283279418 1432.35821604474 C 1303.57683279418 1432.35821604474 1303.92883279418 1432.74221604474 1303.92883279418 1433.51021604474 L 1303.92883279418 1480.16621604474 C 1303.92883279418 1480.93421604474 1303.60883279418 1481.31821604474 1302.96883279418 1481.31821604474 L 1300.08883279418 1481.31821604474 C 1299.44883279418 1481.31821604474 1299.12883279418 1480.93421604474 1299.12883279418 1480.16621604474 Z M 1320.92083279418 1436.67821604474 L 1315.06483279418 1436.67821604474 C 1314.36083279418 1436.67821604474 1314.00883279418 1436.35821604474 1314.00883279418 1435.71821604475 L 1314.00883279418 1433.41421604474 C 1314.00883279418 1432.71021604474 1314.36083279418 1432.35821604474 1315.06483279418 1432.35821604474 L 1320.92083279418 1432.35821604474 C 1321.49683279418 1432.35821604474 1321.78483279418 1432.07021604474 1321.78483279418 1431.49421604474 L 1321.78483279418 1423.71821604475 C 1321.78483279418 1422.95021604474 1322.13683279418 1422.56621604474 1322.84083279418 1422.56621604474 L 1325.62483279418 1422.56621604474 C 1326.32883279418 1422.56621604474 1326.68083279418 1422.95021604474 1326.68083279418 1423.71821604475 L 1326.68083279418 1431.49421604474 C 1326.68083279418 1432.07021604474 1326.96883279418 1432.35821604474 1327.54483279418 1432.35821604474 L 1338.96883279418 1432.35821604474 C 1339.67283279418 1432.35821604474 1340.02483279418 1432.71021604474 1340.02483279418 1433.41421604474 L 1340.02483279418 1435.71821604475 C 1340.02483279418 1436.35821604474 1339.67283279418 1436.67821604474 1338.96883279418 1436.67821604474 L 1327.54483279418 1436.67821604474 C 1326.96883279418 1436.67821604474 1326.68083279418 1436.96621604474 1326.68083279418 1437.54221604474 L 1326.68083279418 1467.78221604474 C 1326.68083279418 1470.72621604474 1327.51283279418 1472.99821604474 1329.17683279418 1474.59821604474 C 1330.84083279418 1476.19821604475 1333.17683279418 1476.99821604474 1336.18483279418 1476.99821604474 L 1339.92883279418 1476.99821604474 C 1340.63283279418 1476.99821604474 1340.98483279418 1477.35021604474 1340.98483279418 1478.05421604475 L 1340.98483279418 1480.26221604474 C 1340.98483279418 1480.96621604474 1340.63283279418 1481.31821604474 1339.92883279418 1481.31821604474 L 1335.80083279418 1481.31821604474 C 1331.57683279418 1481.31821604474 1328.18483279418 1480.13421604474 1325.62483279418 1477.76621604475 C 1323.06483279418 1475.39821604474 1321.78483279418 1472.13421604474 1321.78483279418 1467.97421604474 L 1321.78483279418 1437.54221604474 C 1321.78483279418 1436.96621604474 1321.49683279418 1436.67821604474 1320.92083279418 1436.67821604474 Z M 1354.42483279418 1495.91021604475 L 1350.87283279418 1495.91021604475 C 1350.16883279418 1495.91021604475 1349.81683279418 1495.55821604474 1349.81683279418 1494.85421604474 L 1349.81683279418 1492.55021604474 C 1349.81683279418 1491.84621604474 1350.16883279418 1491.49421604474 1350.87283279418 1491.49421604474 L 1353.46483279418 1491.49421604474 C 1355.38483279418 1491.49421604474 1357.01683279418 1491.22221604474 1358.36083279418 1490.67821604474 C 1359.70483279418 1490.13421604474 1360.88883279418 1489.12621604474 1361.91283279418 1487.65421604474 C 1362.93683279418 1486.18221604474 1363.60883279418 1485.03021604474 1363.92883279418 1484.19821604475 C 1364.82483279418 1482.21421604474 1365.56083279418 1480.39021604474 1366.13683279418 1478.72621604474 L 1364.31283279418 1478.72621604474 C 1363.60883279418 1478.72621604474 1363.16083279418 1478.34221604474 1362.96883279418 1477.57421604475 L 1347.70483279418 1433.51021604474 C 1347.44883279418 1432.74221604474 1347.70483279418 1432.35821604474 1348.47283279418 1432.35821604474 L 1351.44883279418 1432.35821604474 C 1352.08883279418 1432.35821604474 1352.50483279418 1432.74221604474 1352.69683279418 1433.51021604474 L 1366.80883279418 1474.69421604474 L 1367.19283279418 1474.69421604474 L 1381.30483279418 1433.51021604474 C 1381.49683279418 1432.74221604474 1381.91283279418 1432.35821604474 1382.55283279418 1432.35821604474 L 1385.43283279418 1432.35821604474 C 1386.20083279418 1432.35821604474 1386.48883279418 1432.74221604474 1386.29683279418 1433.51021604474 C 1374.84083279418 1467.04621604474 1368.87283279418 1484.39021604474 1368.39283279418 1485.54221604474 C 1367.91283279418 1486.69421604474 1367.03283279418 1488.26221604474 1365.75283279418 1490.24621604475 C 1363.32083279418 1494.02221604474 1359.54483279418 1495.91021604475 1354.42483279418 1495.91021604475 Z M 1421.14483279418 1481.31821604474 L 1418.16883279418 1481.31821604474 C 1417.46483279418 1481.31821604474 1417.24083279418 1480.93421604474 1417.49683279418 1480.16621604474 L 1436.60083279418 1420.74221604474 C 1436.79283279418 1419.97421604474 1437.24083279418 1419.59021604474 1437.94483279418 1419.59021604474 L 1442.45683279418 1419.59021604474 C 1443.09683279418 1419.59021604474 1443.54483279418 1419.97421604474 1443.80083279418 1420.74221604474 L 1462.90483279418 1480.16621604474 C 1463.09683279418 1480.93421604474 1462.87283279418 1481.31821604474 1462.23283279418 1481.31821604474 L 1459.16083279418 1481.31821604474 C 1458.52083279418 1481.31821604474 1458.10483279418 1480.93421604474 1457.91283279418 1480.16621604474 L 1452.72883279418 1464.80621604474 L 1427.57683279418 1464.80621604474 L 1422.39283279418 1480.16621604474 C 1422.13683279418 1480.93421604474 1421.72083279418 1481.31821604474 1421.14483279418 1481.31821604474 Z M 1439.96083279418 1424.87021604474 L 1428.92083279418 1460.48621604474 L 1451.48083279418 1460.48621604474 L 1440.34483279418 1424.87021604474 L 1439.96083279418 1424.87021604474 Z M 1476.72883279418 1481.31821604474 L 1473.94483279418 1481.31821604474 C 1473.30483279418 1481.31821604474 1472.98483279418 1480.93421604474 1472.98483279418 1480.16621604474 L 1472.98483279418 1433.51021604474 C 1472.98483279418 1432.74221604474 1473.30483279418 1432.35821604474 1473.94483279418 1432.35821604474 L 1476.72883279418 1432.35821604474 C 1477.43283279418 1432.35821604474 1477.78483279418 1432.74221604474 1477.78483279418 1433.51021604474 L 1477.78483279418 1437.35021604474 L 1478.16883279418 1437.35021604474 C 1479.96083279418 1434.02221604474 1483.28883279418 1432.35821604474 1488.15283279418 1432.35821604474 L 1494.48883279418 1432.35821604474 C 1498.58483279418 1432.35821604474 1501.81683279418 1433.57421604475 1504.18483279418 1436.00621604475 C 1506.55283279418 1438.43821604474 1507.73683279418 1441.76621604475 1507.73683279418 1445.99021604474 L 1507.73683279418 1480.16621604474 C 1507.73683279418 1480.93421604474 1507.41683279418 1481.31821604474 1506.77683279418 1481.31821604474 L 1503.99283279418 1481.31821604474 C 1503.28883279418 1481.31821604474 1502.93683279418 1480.93421604474 1502.93683279418 1480.16621604474 L 1502.93683279418 1446.18221604474 C 1502.93683279418 1443.17421604474 1502.16883279418 1440.83821604474 1500.63283279418 1439.17421604474 C 1499.09683279418 1437.51021604474 1496.85683279418 1436.67821604474 1493.91283279418 1436.67821604474 L 1487.67283279418 1436.67821604474 C 1484.60083279418 1436.67821604474 1482.18483279418 1437.49421604474 1480.42483279418 1439.12621604474 C 1478.66483279418 1440.75821604474 1477.78483279418 1443.07821604474 1477.78483279418 1446.08621604474 L 1477.78483279418 1480.16621604474 C 1477.78483279418 1480.93421604474 1477.43283279418 1481.31821604474 1476.72883279418 1481.31821604474 Z M 1540.37683279418 1481.31821604474 L 1533.94483279418 1481.31821604474 C 1529.84883279418 1481.31821604474 1526.61683279418 1480.10221604475 1524.24883279418 1477.67021604475 C 1521.88083279418 1475.23821604474 1520.69683279418 1471.91021604475 1520.69683279418 1467.68621604474 L 1520.69683279418 1445.99021604474 C 1520.69683279418 1441.76621604475 1521.88083279418 1438.43821604474 1524.24883279418 1436.00621604475 C 1526.61683279418 1433.57421604475 1529.84883279418 1432.35821604474 1533.94483279418 1432.35821604474 L 1540.37683279418 1432.35821604474 C 1545.30483279418 1432.35821604474 1548.66483279418 1434.02221604474 1550.45683279418 1437.35021604474 L 1550.84083279418 1437.35021604474 L 1550.84083279418 1414.98221604474 C 1550.84083279418 1414.21421604474 1551.16083279418 1413.83021604474 1551.80083279418 1413.83021604474 L 1554.58483279418 1413.83021604474 C 1555.28883279418 1413.83021604474 1555.64083279418 1414.21421604474 1555.64083279418 1414.98221604474 L 1555.64083279418 1480.16621604474 C 1555.64083279418 1480.93421604474 1555.28883279418 1481.31821604474 1554.58483279418 1481.31821604474 L 1551.80083279418 1481.31821604474 C 1551.16083279418 1481.31821604474 1550.84083279418 1480.93421604474 1550.84083279418 1480.16621604474 L 1550.84083279418 1476.32621604474 L 1550.45683279418 1476.32621604474 C 1548.66483279418 1479.65421604474 1545.30483279418 1481.31821604474 1540.37683279418 1481.31821604474 Z M 1550.84083279418 1467.59021604474 L 1550.84083279418 1446.08621604474 C 1550.84083279418 1443.07821604474 1549.96083279418 1440.75821604474 1548.20083279418 1439.12621604474 C 1546.44083279418 1437.49421604474 1544.02483279418 1436.67821604474 1540.95283279418 1436.67821604474 L 1534.52083279418 1436.67821604474 C 1531.57683279418 1436.67821604474 1529.33683279418 1437.51021604474 1527.80083279418 1439.17421604474 C 1526.26483279418 1440.83821604474 1525.49683279418 1443.17421604474 1525.49683279418 1446.18221604474 L 1525.49683279418 1467.49421604474 C 1525.49683279418 1470.50221604474 1526.26483279418 1472.83821604474 1527.80083279418 1474.50221604474 C 1529.33683279418 1476.16621604474 1531.57683279418 1476.99821604474 1534.52083279418 1476.99821604474 L 1540.95283279418 1476.99821604474 C 1544.02483279418 1476.99821604474 1546.44083279418 1476.18221604474 1548.20083279418 1474.55021604474 C 1549.96083279418 1472.91821604474 1550.84083279418 1470.59821604474 1550.84083279418 1467.59021604474 Z M 1600.37683279418 1481.31821604474 L 1597.59283279418 1481.31821604474 C 1596.95283279418 1481.31821604474 1596.63283279418 1480.93421604474 1596.63283279418 1480.16621604474 L 1596.63283279418 1420.74221604474 C 1596.63283279418 1419.97421604474 1596.95283279418 1419.59021604474 1597.59283279418 1419.59021604474 L 1600.18483279418 1419.59021604474 C 1600.76083279418 1419.59021604474 1601.14483279418 1419.78221604474 1601.33683279418 1420.16621604474 L 1630.80883279418 1470.85421604474 L 1631.19283279418 1470.85421604474 L 1631.19283279418 1420.74221604474 C 1631.19283279418 1419.97421604474 1631.54483279418 1419.59021604474 1632.24883279418 1419.59021604474 L 1634.93683279418 1419.59021604474 C 1635.64083279418 1419.59021604474 1635.99283279418 1419.97421604474 1635.99283279418 1420.74221604474 L 1635.99283279418 1480.16621604474 C 1635.99283279418 1480.93421604474 1635.64083279418 1481.31821604474 1634.93683279418 1481.31821604474 L 1632.72883279418 1481.31821604474 C 1632.15283279418 1481.31821604474 1631.64083279418 1480.96621604474 1631.19283279418 1480.26221604474 L 1601.81683279418 1429.95821604475 L 1601.43283279418 1429.95821604475 L 1601.43283279418 1480.16621604474 C 1601.43283279418 1480.93421604474 1601.08083279418 1481.31821604474 1600.37683279418 1481.31821604474 Z M 1669.88083279418 1481.31821604474 L 1663.73683279418 1481.31821604474 C 1659.57683279418 1481.31821604474 1656.29683279418 1480.10221604475 1653.89683279418 1477.67021604475 C 1651.49683279418 1475.23821604474 1650.29683279418 1471.91021604475 1650.29683279418 1467.68621604474 L 1650.29683279418 1445.99021604474 C 1650.29683279418 1441.76621604475 1651.49683279418 1438.43821604474 1653.89683279418 1436.00621604475 C 1656.29683279418 1433.57421604475 1659.57683279418 1432.35821604474 1663.73683279418 1432.35821604474 L 1684.08883279418 1432.35821604474 C 1684.72883279418 1432.35821604474 1685.04883279418 1432.74221604474 1685.04883279418 1433.51021604474 L 1685.04883279418 1480.16621604474 C 1685.04883279418 1480.93421604474 1684.72883279418 1481.31821604474 1684.08883279418 1481.31821604474 L 1681.30483279418 1481.31821604474 C 1680.60083279418 1481.31821604474 1680.24883279418 1480.93421604474 1680.24883279418 1480.16621604474 L 1680.24883279418 1476.32621604474 L 1679.86483279418 1476.32621604474 C 1678.20083279418 1479.65421604474 1674.87283279418 1481.31821604474 1669.88083279418 1481.31821604474 Z M 1680.24883279418 1467.59021604474 L 1680.24883279418 1437.54221604474 C 1680.24883279418 1436.96621604474 1679.92883279418 1436.67821604474 1679.28883279418 1436.67821604474 L 1664.12083279418 1436.67821604474 C 1661.17683279418 1436.67821604474 1658.93683279418 1437.51021604474 1657.40083279418 1439.17421604474 C 1655.86483279418 1440.83821604474 1655.09683279418 1443.17421604474 1655.09683279418 1446.18221604474 L 1655.09683279418 1467.49421604474 C 1655.09683279418 1470.50221604474 1655.86483279418 1472.83821604474 1657.40083279418 1474.50221604474 C 1658.93683279418 1476.16621604474 1661.17683279418 1476.99821604474 1664.12083279418 1476.99821604474 L 1670.36083279418 1476.99821604474 C 1673.43283279418 1476.99821604474 1675.84883279418 1476.18221604474 1677.60883279418 1474.55021604474 C 1679.36883279418 1472.91821604474 1680.24883279418 1470.59821604474 1680.24883279418 1467.59021604474 Z M 1701.56083279418 1436.67821604474 L 1695.70483279418 1436.67821604474 C 1695.00083279418 1436.67821604474 1694.64883279418 1436.35821604474 1694.64883279418 1435.71821604475 L 1694.64883279418 1433.41421604474 C 1694.64883279418 1432.71021604474 1695.00083279418 1432.35821604474 1695.70483279418 1432.35821604474 L 1701.56083279418 1432.35821604474 C 1702.13683279418 1432.35821604474 1702.42483279418 1432.07021604474 1702.42483279418 1431.49421604474 L 1702.42483279418 1423.71821604475 C 1702.42483279418 1422.95021604474 1702.77683279418 1422.56621604474 1703.48083279418 1422.56621604474 L 1706.26483279418 1422.56621604474 C 1706.96883279418 1422.56621604474 1707.32083279418 1422.95021604474 1707.32083279418 1423.71821604475 L 1707.32083279418 1431.49421604474 C 1707.32083279418 1432.07021604474 1707.60883279418 1432.35821604474 1708.18483279418 1432.35821604474 L 1719.60883279418 1432.35821604474 C 1720.31283279418 1432.35821604474 1720.66483279418 1432.71021604474 1720.66483279418 1433.41421604474 L 1720.66483279418 1435.71821604475 C 1720.66483279418 1436.35821604474 1720.31283279418 1436.67821604474 1719.60883279418 1436.67821604474 L 1708.18483279418 1436.67821604474 C 1707.60883279418 1436.67821604474 1707.32083279418 1436.96621604474 1707.32083279418 1437.54221604474 L 1707.32083279418 1467.78221604474 C 1707.32083279418 1470.72621604474 1708.15283279418 1472.99821604474 1709.81683279418 1474.59821604474 C 1711.48083279418 1476.19821604475 1713.81683279418 1476.99821604474 1716.82483279418 1476.99821604474 L 1720.56883279418 1476.99821604474 C 1721.27283279418 1476.99821604474 1721.62483279418 1477.35021604474 1721.62483279418 1478.05421604475 L 1721.62483279418 1480.26221604474 C 1721.62483279418 1480.96621604474 1721.27283279418 1481.31821604474 1720.56883279418 1481.31821604474 L 1716.44083279418 1481.31821604474 C 1712.21683279418 1481.31821604474 1708.82483279418 1480.13421604474 1706.26483279418 1477.76621604475 C 1703.70483279418 1475.39821604474 1702.42483279418 1472.13421604474 1702.42483279418 1467.97421604474 L 1702.42483279418 1437.54221604474 C 1702.42483279418 1436.96621604474 1702.13683279418 1436.67821604474 1701.56083279418 1436.67821604474 Z M 1751.86483279418 1481.31821604474 L 1745.52883279418 1481.31821604474 C 1741.43283279418 1481.31821604474 1738.20083279418 1480.10221604475 1735.83283279418 1477.67021604475 C 1733.46483279418 1475.23821604474 1732.28083279418 1471.91021604475 1732.28083279418 1467.68621604474 L 1732.28083279418 1433.51021604474 C 1732.28083279418 1432.74221604474 1732.60083279418 1432.35821604474 1733.24083279418 1432.35821604474 L 1736.02483279418 1432.35821604474 C 1736.72883279418 1432.35821604474 1737.08083279418 1432.74221604474 1737.08083279418 1433.51021604474 L 1737.08083279418 1467.49421604474 C 1737.08083279418 1470.50221604474 1737.84883279418 1472.83821604474 1739.38483279418 1474.50221604474 C 1740.92083279418 1476.16621604474 1743.16083279418 1476.99821604474 1746.10483279418 1476.99821604474 L 1752.34483279418 1476.99821604474 C 1755.41683279418 1476.99821604474 1757.83283279418 1476.18221604474 1759.59283279418 1474.55021604474 C 1761.35283279418 1472.91821604474 1762.23283279418 1470.59821604474 1762.23283279418 1467.59021604474 L 1762.23283279418 1433.51021604474 C 1762.23283279418 1432.74221604474 1762.58483279418 1432.35821604474 1763.28883279418 1432.35821604474 L 1766.07283279418 1432.35821604474 C 1766.71283279418 1432.35821604474 1767.03283279418 1432.74221604474 1767.03283279418 1433.51021604474 L 1767.03283279418 1480.16621604474 C 1767.03283279418 1480.93421604474 1766.71283279418 1481.31821604474 1766.07283279418 1481.31821604474 L 1763.28883279418 1481.31821604474 C 1762.58483279418 1481.31821604474 1762.23283279418 1480.93421604474 1762.23283279418 1480.16621604474 L 1762.23283279418 1476.32621604474 L 1761.84883279418 1476.32621604474 C 1760.18483279418 1479.65421604474 1756.85683279418 1481.31821604474 1751.86483279418 1481.31821604474 Z M 1785.17683279418 1481.31821604474 L 1782.39283279418 1481.31821604474 C 1781.75283279418 1481.31821604474 1781.43283279418 1480.93421604474 1781.43283279418 1480.16621604474 L 1781.43283279418 1433.51021604474 C 1781.43283279418 1432.74221604474 1781.75283279418 1432.35821604474 1782.39283279418 1432.35821604474 L 1785.17683279418 1432.35821604474 C 1785.88083279418 1432.35821604474 1786.23283279418 1432.74221604474 1786.23283279418 1433.51021604474 L 1786.23283279418 1437.54221604474 L 1786.61683279418 1437.54221604474 C 1787.32083279418 1436.19821604475 1788.56883279418 1434.99821604474 1790.36083279418 1433.94221604474 C 1792.15283279418 1432.88621604474 1794.36083279418 1432.35821604474 1796.98483279418 1432.35821604474 L 1800.72883279418 1432.35821604474 C 1801.43283279418 1432.35821604474 1801.78483279418 1432.71021604474 1801.78483279418 1433.41421604474 L 1801.78483279418 1435.71821604475 C 1801.78483279418 1436.42221604474 1801.43283279418 1436.74221604474 1800.72883279418 1436.67821604474 L 1796.21683279418 1436.67821604474 C 1793.08083279418 1436.67821604474 1790.63283279418 1437.63821604474 1788.87283279418 1439.55821604474 C 1787.11283279418 1441.47821604474 1786.23283279418 1444.07021604474 1786.23283279418 1447.33421604474 L 1786.23283279418 1480.16621604474 C 1786.23283279418 1480.93421604474 1785.88083279418 1481.31821604474 1785.17683279418 1481.31821604474 Z M 1844.02483279418 1481.31821604474 L 1823.96083279418 1481.31821604474 C 1819.80083279418 1481.31821604474 1816.52083279418 1480.10221604475 1814.12083279418 1477.67021604475 C 1811.72083279418 1475.23821604474 1810.52083279418 1471.91021604475 1810.52083279418 1467.68621604474 L 1810.52083279418 1445.99021604474 C 1810.52083279418 1441.76621604475 1811.72083279418 1438.43821604474 1814.12083279418 1436.00621604475 C 1816.52083279418 1433.57421604475 1819.80083279418 1432.35821604474 1823.96083279418 1432.35821604474 L 1832.21683279418 1432.35821604474 C 1836.37683279418 1432.35821604474 1839.67283279418 1433.57421604475 1842.10483279418 1436.00621604475 C 1844.53683279418 1438.43821604474 1845.75283279418 1441.76621604475 1845.75283279418 1445.99021604474 L 1845.75283279418 1458.18221604474 C 1845.75283279418 1458.95021604474 1845.36883279418 1459.33421604474 1844.60083279418 1459.33421604474 L 1816.18483279418 1459.33421604474 C 1815.60883279418 1459.33421604474 1815.32083279418 1459.62221604475 1815.32083279418 1460.19821604475 L 1815.32083279418 1467.59021604474 C 1815.32083279418 1470.59821604474 1816.08883279418 1472.91821604474 1817.62483279418 1474.55021604474 C 1819.16083279418 1476.18221604474 1821.40083279418 1476.99821604474 1824.34483279418 1476.99821604474 L 1844.02483279418 1476.99821604474 C 1844.72883279418 1476.99821604474 1845.08083279418 1477.35021604474 1845.08083279418 1478.05421604475 L 1845.08083279418 1480.26221604474 C 1845.08083279418 1480.96621604474 1844.72883279418 1481.31821604474 1844.02483279418 1481.31821604474 Z M 1816.18483279418 1455.49421604474 L 1840.08883279418 1455.49421604474 C 1840.66483279418 1455.49421604474 1840.95283279418 1455.20621604474 1840.95283279418 1454.63021604474 L 1840.95283279418 1446.08621604474 C 1840.95283279418 1443.07821604474 1840.18483279418 1440.75821604474 1838.64883279418 1439.12621604474 C 1837.11283279418 1437.49421604474 1834.87283279418 1436.67821604474 1831.92883279418 1436.67821604474 L 1824.34483279418 1436.67821604474 C 1821.40083279418 1436.67821604474 1819.16083279418 1437.49421604474 1817.62483279418 1439.12621604474 C 1816.08883279418 1440.75821604474 1815.32083279418 1443.07821604474 1815.32083279418 1446.08621604474 L 1815.32083279418 1454.63021604474 C 1815.32083279418 1455.20621604474 1815.60883279418 1455.49421604474 1816.18483279418 1455.49421604474 Z"/></svg>