<svg width="1000" height="1000" viewBox="0 0 1000 1000" xmlns="http://www.w3.org/2000/svg"><defs/><path d="M 0 0 L 1000 0 L 1000 1000 L 0 1000 Z"/><path fill="#ffffff" transform="matrix(0.18508311734242236 0 0 0.18508311734242236 22.97938899589069 -5.7782909995464555)" d="M 805.3911140106 2605.898332025 C 805.3911140106 2625.00738436915 789.90016635475 2640.498332025 770.7911140106 2640.498332025 C 751.68206166645 2640.498332025 736.1911140106 2625.00738436915 736.1911140106 2605.898332025 C 736.1911140106 2586.78927968085 751.68206166645 2571.298332025 770.7911140106 2571.298332025 C 789.90016635475 2571.298332025 805.3911140106 2586.78927968085 805.3911140106 2605.898332025 Z"/><path fill="#ffffff" transform="matrix(0.18508311734242236 0 0 0.18508311734242236 22.97938899589069 -5.7782909995464555)" d="M 942.8911140106 2655.898332025 C 942.8911140106 2673.40575859464 928.69854058024 2687.598332025 911.1911140106 2687.598332025 C 893.68368744096 2687.598332025 879.4911140106 2673.40575859464 879.4911140106 2655.898332025 C 879.4911140106 2638.39090545536 893.68368744096 2624.198332025 911.1911140106 2624.198332025 C 928.69854058024 2624.198332025 942.8911140106 2638.39090545536 942.8911140106 2655.898332025 Z"/><path fill="#ffffff" transform="matrix(0.18508311734242236 0 0 0.18508311734242236 22.97938899589069 -5.7782909995464555)" d="M 1086.1911140106 2605.898332025 C 1086.1911140106 2625.00738436915 1070.70016635475 2640.498332025 1051.5911140106 2640.498332025 C 1032.48206166645 2640.498332025 1016.9911140106 2625.00738436915 1016.9911140106 2605.898332025 C 1016.9911140106 2586.78927968085 1032.48206166645 2571.298332025 1051.5911140106 2571.298332025 C 1070.70016635475 2571.298332025 1086.1911140106 2586.78927968085 1086.1911140106 2605.898332025 Z"/><path fill="#ffffff" transform="matrix(0.18508311734242236 0 0 0.18508311734242236 22.97938899589069 -5.7782909995464555)" d="M 1120.4911140106 2894.098332025 C 1120.2911140106 2894.098332025 1120.0911140106 2894.098332025 1119.8911140106 2894.098332025 C 1112.9911140106 2893.798332025 1107.7911140106 2887.898332025 1108.0911140106 2881.098332025 C 1110.7911140106 2826.898332025 1111.7911140106 2800.998332025 1110.5911140106 2763.298332025 C 1109.7911140106 2739.398332025 1101.9911140106 2683.898332025 1045.1911140106 2683.898332025 C 1023.2911140106 2683.898332025 1006.3911140106 2691.798332025 993.5911140106 2707.998332025 C 987.1911140106 2716.098332025 981.9911140106 2726.098332025 977.8911140106 2737.898332025 C 993.9911140106 2754.598332025 1004.7911140106 2777.298332025 1009.3911140106 2804.298332025 C 1010.6911140106 2811.898332025 1016.4911140106 2850.998332025 1000.8911140106 2869.498332025 C 995.3911140106 2875.998332025 988.0911140106 2879.398332025 979.5911140106 2879.398332025 C 970.3911140106 2879.398332025 962.2911140106 2875.798332025 956.0911140106 2868.898332025 C 942.6911140106 2853.798332025 938.9911140106 2822.298332025 944.8911140106 2772.798332025 C 945.9911140106 2763.398332025 947.5911140106 2754.498332025 949.5911140106 2746.198332025 C 937.9911140106 2737.898332025 924.2911140106 2733.298332025 911.0911140106 2733.298332025 C 897.8911140106 2733.298332025 884.1911140106 2737.998332025 872.5911140106 2746.198332025 C 874.5911140106 2754.498332025 876.1911140106 2763.398332025 877.2911140106 2772.798332025 C 883.1911140106 2822.298332025 879.5911140106 2853.698332025 866.0911140106 2868.898332025 C 859.9911140106 2875.798332025 851.8911140106 2879.398332025 842.5911140106 2879.398332025 C 834.0911140106 2879.398332025 826.7911140106 2875.998332025 821.2911140106 2869.498332025 C 805.6911140106 2850.998332025 811.4911140106 2811.898332025 812.7911140106 2804.298332025 C 817.3911140106 2777.298332025 828.2911140106 2754.598332025 844.2911140106 2737.898332025 C 840.1911140106 2726.098332025 834.9911140106 2716.098332025 828.5911140106 2707.998332025 C 815.7911140106 2691.798332025 798.8911140106 2683.898332025 776.9911140106 2683.898332025 C 720.1911140106 2683.898332025 712.2911140106 2739.398332025 711.5911140106 2763.298332025 C 710.3911140106 2800.998332025 711.3911140106 2826.798332025 714.0911140106 2881.098332025 C 714.3911140106 2887.998332025 709.1911140106 2893.798332025 702.2911140106 2894.098332025 C 695.3911140106 2894.498332025 689.5911140106 2889.198332025 689.2911140106 2882.298332025 C 686.5911140106 2828.498332025 685.5911140106 2800.898332025 686.7911140106 2762.498332025 C 688.7911140106 2698.698332025 723.3911140106 2658.998332025 777.0911140106 2658.998332025 C 806.6911140106 2658.998332025 830.6911140106 2670.298332025 848.1911140106 2692.598332025 C 854.6911140106 2700.898332025 860.2911140106 2710.598332025 864.7911140106 2721.598332025 C 879.0911140106 2713.098332025 895.2911140106 2708.398332025 911.0911140106 2708.398332025 C 926.7911140106 2708.398332025 943.0911140106 2713.098332025 957.3911140106 2721.598332025 C 961.8911140106 2710.598332025 967.3911140106 2700.898332025 973.9911140106 2692.598332025 C 991.5911140106 2670.298332025 1015.4911140106 2658.998332025 1045.0911140106 2658.998332025 C 1098.7911140106 2658.998332025 1133.2911140106 2698.698332025 1135.3911140106 2762.498332025 C 1136.5911140106 2800.898332025 1135.5911140106 2828.498332025 1132.8911140106 2882.298332025 C 1132.5911140106 2888.898332025 1127.0911140106 2894.098332025 1120.4911140106 2894.098332025 Z M 970.5911140106 2768.798332025 C 970.2911140106 2771.098332025 969.9911140106 2773.398332025 969.6911140106 2775.698332025 C 962.7911140106 2833.598332025 971.7911140106 2848.998332025 974.7911140106 2852.298332025 C 976.1911140106 2853.898332025 977.4911140106 2854.498332025 979.6911140106 2854.498332025 C 980.7911140106 2854.498332025 981.2911140106 2854.298332025 981.9911140106 2853.398332025 C 986.8911140106 2847.498332025 988.2911140106 2827.398332025 984.9911140106 2808.398332025 C 982.2911140106 2793.398332025 977.3911140106 2779.998332025 970.5911140106 2768.798332025 Z M 851.7911140106 2768.798332025 C 844.8911140106 2779.898332025 840.0911140106 2793.298332025 837.3911140106 2808.498332025 C 834.0911140106 2827.398332025 835.4911140106 2847.598332025 840.3911140106 2853.498332025 C 841.0911140106 2854.298332025 841.5911140106 2854.598332025 842.6911140106 2854.598332025 C 844.7911140106 2854.598332025 846.1911140106 2853.998332025 847.5911140106 2852.398332025 C 850.4911140106 2849.098332025 859.5911140106 2833.698332025 852.6911140106 2775.798332025 C 852.4911140106 2773.398332025 852.1911140106 2771.098332025 851.7911140106 2768.798332025 Z"/><path id="text" fill="#ffffff" transform="matrix(0.5431211724568411 0 0 0.5431211724568411 141.85976317140728 37.12341837977001)" d="M 284.07021081652 847.26487669486 L 270.15021081652 847.26487669486 L 266.31021081652 835.45687669486 L 243.36621081652 835.45687669486 L 239.62221081652 847.26487669486 L 225.70221081652 847.26487669486 L 247.59021081652 784.67287669486 C 248.55021081652 782.49687669486 249.62221081652 780.99287669486 250.80621081652 780.16087669486 C 251.99021081652 779.32887669486 253.44621081652 778.91287669486 255.17421081652 778.91287669486 C 256.90221081652 778.91287669486 258.29421081652 779.29687669486 259.35021081652 780.06487669486 C 260.40621081652 780.83287669486 261.35021081652 782.36887669486 262.18221081652 784.67287669486 L 284.07021081652 847.26487669486 Z M 263.23821081652 824.22487669486 L 255.17421081652 797.15287669486 L 246.72621081652 824.22487669486 L 263.23821081652 824.22487669486 Z M 368.45421081652 847.26487669486 L 354.53421081652 847.26487669486 L 350.69421081652 835.45687669486 L 327.75021081652 835.45687669486 L 324.00621081652 847.26487669486 L 310.08621081652 847.26487669486 L 331.97421081652 784.67287669486 C 332.93421081652 782.49687669486 334.00621081652 780.99287669486 335.19021081652 780.16087669486 C 336.37421081652 779.32887669486 337.83021081652 778.91287669486 339.55821081652 778.91287669486 C 341.28621081652 778.91287669486 342.67821081652 779.29687669486 343.73421081652 780.06487669486 C 344.79021081652 780.83287669486 345.73421081652 782.36887669486 346.56621081652 784.67287669486 L 368.45421081652 847.26487669486 Z M 347.62221081652 824.22487669486 L 339.55821081652 797.15287669486 L 331.11021081652 824.22487669486 L 347.62221081652 824.22487669486 Z M 451.78221081652 847.26487669486 L 438.43821081652 847.26487669486 L 438.43821081652 819.61687669486 L 413.38221081652 819.61687669486 L 413.38221081652 847.26487669486 L 400.03821081652 847.26487669486 L 400.03821081652 778.91287669486 L 413.38221081652 778.91287669486 L 413.38221081652 807.80887669486 L 438.43821081652 807.80887669486 L 438.43821081652 778.91287669486 L 451.78221081652 778.91287669486 L 451.78221081652 847.26487669486 Z M 541.73421081652 847.26487669486 L 527.81421081652 847.26487669486 L 523.97421081652 835.45687669486 L 501.03021081652 835.45687669486 L 497.28621081652 847.26487669486 L 483.36621081652 847.26487669486 L 505.25421081652 784.67287669486 C 506.21421081652 782.49687669486 507.28621081652 780.99287669486 508.47021081652 780.16087669486 C 509.65421081652 779.32887669486 511.11021081652 778.91287669486 512.83821081652 778.91287669486 C 514.56621081652 778.91287669486 515.95821081652 779.29687669486 517.01421081652 780.06487669486 C 518.07021081652 780.83287669486 519.01421081652 782.36887669486 519.84621081652 784.67287669486 L 541.73421081652 847.26487669486 Z M 520.90221081652 824.22487669486 L 512.83821081652 797.15287669486 L 504.39021081652 824.22487669486 L 520.90221081652 824.22487669486 Z M 627.55821081652 778.91287669486 L 627.55821081652 840.35287669486 C 627.55821081652 842.46487669486 626.91821081652 844.27287669486 625.63821081652 845.77687669486 C 624.35821081652 847.28087669486 622.85421081652 848.03287669486 621.12621081652 848.03287669486 C 616.71021081652 848.03287669486 613.09421081652 845.47287669486 610.27821081652 840.35287669486 L 586.66221081652 803.39287669486 L 586.66221081652 847.26487669486 L 573.31821081652 847.26487669486 L 573.31821081652 778.91287669486 L 586.18221081652 778.91287669486 L 614.21421081652 823.64887669486 L 614.21421081652 778.91287669486 L 627.55821081652 778.91287669486 Z"/><path id="text" fill="#ffffff" transform="matrix(0.40734087934263086 0 0 0.40734087934263086 141.5102646969313 73.72109546460179)" d="M 305.54428108869 1129.68650225982 L 302.56828108869 1129.68650225982 C 301.86428108869 1129.68650225982 301.64028108869 1129.30250225982 301.89628108869 1128.53450225982 L 321.00028108869 1069.11050225982 C 321.19228108869 1068.34250225982 321.64028108869 1067.95850225982 322.34428108869 1067.95850225982 L 326.85628108869 1067.95850225982 C 327.49628108869 1067.95850225982 327.94428108869 1068.34250225982 328.20028108869 1069.11050225982 L 347.30428108869 1128.53450225982 C 347.49628108869 1129.30250225982 347.27228108869 1129.68650225982 346.63228108869 1129.68650225982 L 343.56028108869 1129.68650225982 C 342.92028108869 1129.68650225982 342.50428108869 1129.30250225982 342.31228108869 1128.53450225982 L 337.12828108869 1113.17450225982 L 311.97628108869 1113.17450225982 L 306.79228108869 1128.53450225982 C 306.53628108869 1129.30250225982 306.12028108869 1129.68650225982 305.54428108869 1129.68650225982 Z M 324.36028108869 1073.23850225982 L 313.32028108869 1108.85450225982 L 335.88028108869 1108.85450225982 L 324.74428108869 1073.23850225982 L 324.36028108869 1073.23850225982 Z M 373.22428108869 1129.68650225982 L 356.52028108869 1129.68650225982 C 355.81628108869 1129.68650225982 355.46428108869 1129.33450225982 355.46428108869 1128.63050225982 L 355.46428108869 1126.42250225982 C 355.46428108869 1125.78250225982 355.81628108869 1125.46250225982 356.52028108869 1125.46250225982 L 372.74428108869 1125.46250225982 C 378.50428108869 1125.46250225982 381.38428108869 1123.22250225982 381.38428108869 1118.74250225982 L 381.38428108869 1116.43850225982 C 381.38428108869 1112.27850225982 379.59228108869 1109.55850225982 376.00828108869 1108.27850225982 L 364.00828108869 1103.67050225982 C 360.74428108869 1102.39050225982 358.42428108869 1100.88650225982 357.04828108869 1099.15850225982 C 355.67228108869 1097.43050225982 354.98428108869 1095.03050225982 354.98428108869 1091.95850225982 C 354.98428108869 1084.47050225982 359.11228108869 1080.72650225982 367.36828108869 1080.72650225982 L 382.92028108869 1080.72650225982 C 383.62428108869 1080.72650225982 383.97628108869 1081.07850225982 383.97628108869 1081.78250225982 L 383.97628108869 1083.99050225982 C 383.97628108869 1084.63050225982 383.62428108869 1084.95050225982 382.92028108869 1084.95050225982 L 367.84828108869 1084.95050225982 C 365.22428108869 1084.95050225982 363.25628108869 1085.52650225982 361.94428108869 1086.67850225982 C 360.63228108869 1087.83050225982 359.97628108869 1089.17450225982 359.97628108869 1090.71050225982 L 359.97628108869 1092.91850225982 C 359.97628108869 1094.71050225982 360.47228108869 1096.11850225982 361.46428108869 1097.14250225982 C 362.45628108869 1098.16650225982 363.97628108869 1099.03050225982 366.02428108869 1099.73450225982 L 378.02428108869 1104.53450225982 C 381.35228108869 1105.62250225982 383.57628108869 1107.23850225982 384.69628108869 1109.38250225982 C 385.81628108869 1111.52650225982 386.37628108869 1114.51850225982 386.37628108869 1118.35850225982 C 386.37628108869 1122.19850225982 385.30428108869 1125.04650225982 383.16028108869 1126.90250225982 C 381.01628108869 1128.75850225982 377.70428108869 1129.68650225982 373.22428108869 1129.68650225982 Z M 402.50428108869 1143.99050225982 L 399.72028108869 1143.99050225982 C 399.08028108869 1143.99050225982 398.76028108869 1143.63850225982 398.76028108869 1142.93450225982 L 398.76028108869 1081.87850225982 C 398.76028108869 1081.11050225982 399.08028108869 1080.72650225982 399.72028108869 1080.72650225982 L 402.50428108869 1080.72650225982 C 403.20828108869 1080.72650225982 403.56028108869 1081.11050225982 403.56028108869 1081.87850225982 L 403.56028108869 1085.71850225982 L 403.94428108869 1085.71850225982 C 405.73628108869 1082.39050225982 409.06428108869 1080.72650225982 413.92828108869 1080.72650225982 L 420.45628108869 1080.72650225982 C 424.55228108869 1080.72650225982 427.78428108869 1081.94250225982 430.15228108869 1084.37450225982 C 432.52028108869 1086.80650225982 433.70428108869 1090.13450225982 433.70428108869 1094.35850225982 L 433.70428108869 1116.05450225982 C 433.70428108869 1120.27850225982 432.52028108869 1123.60650225982 430.15228108869 1126.03850225982 C 427.78428108869 1128.47050225982 424.55228108869 1129.68650225982 420.45628108869 1129.68650225982 L 413.92828108869 1129.68650225982 C 409.06428108869 1129.68650225982 405.73628108869 1128.02250225982 403.94428108869 1124.69450225982 L 403.56028108869 1124.69450225982 L 403.56028108869 1142.93450225982 C 403.56028108869 1143.63850225982 403.20828108869 1143.99050225982 402.50428108869 1143.99050225982 Z M 413.44828108869 1125.36650225982 L 419.78428108869 1125.36650225982 C 422.72828108869 1125.36650225982 424.98428108869 1124.55050225982 426.55228108869 1122.91850225982 C 428.12028108869 1121.28650225982 428.90428108869 1118.93450225982 428.90428108869 1115.86250225982 L 428.90428108869 1094.55050225982 C 428.90428108869 1091.47850225982 428.12028108869 1089.12650225982 426.55228108869 1087.49450225982 C 424.98428108869 1085.86250225982 422.72828108869 1085.04650225982 419.78428108869 1085.04650225982 L 413.44828108869 1085.04650225982 C 410.37628108869 1085.04650225982 407.96028108869 1085.86250225982 406.20028108869 1087.49450225982 C 404.44028108869 1089.12650225982 403.56028108869 1091.44650225982 403.56028108869 1094.45450225982 L 403.56028108869 1115.95850225982 C 403.56028108869 1118.96650225982 404.44028108869 1121.28650225982 406.20028108869 1122.91850225982 C 407.96028108869 1124.55050225982 410.37628108869 1125.36650225982 413.44828108869 1125.36650225982 Z M 447.62428108869 1072.66250225982 L 447.62428108869 1063.44650225982 C 447.62428108869 1062.74250225982 447.94428108869 1062.39050225982 448.58428108869 1062.39050225982 L 451.46428108869 1062.39050225982 C 452.10428108869 1062.39050225982 452.42428108869 1062.74250225982 452.42428108869 1063.44650225982 L 452.42428108869 1072.66250225982 C 452.42428108869 1073.43050225982 452.10428108869 1073.81450225982 451.46428108869 1073.81450225982 L 448.58428108869 1073.81450225982 C 447.94428108869 1073.81450225982 447.62428108869 1073.43050225982 447.62428108869 1072.66250225982 Z M 447.62428108869 1128.53450225982 L 447.62428108869 1081.87850225982 C 447.62428108869 1081.11050225982 447.94428108869 1080.72650225982 448.58428108869 1080.72650225982 L 451.36828108869 1080.72650225982 C 452.07228108869 1080.72650225982 452.42428108869 1081.11050225982 452.42428108869 1081.87850225982 L 452.42428108869 1128.53450225982 C 452.42428108869 1129.30250225982 452.10428108869 1129.68650225982 451.46428108869 1129.68650225982 L 448.58428108869 1129.68650225982 C 447.94428108869 1129.68650225982 447.62428108869 1129.30250225982 447.62428108869 1128.53450225982 Z M 471.04828108869 1129.68650225982 L 468.26428108869 1129.68650225982 C 467.62428108869 1129.68650225982 467.30428108869 1129.30250225982 467.30428108869 1128.53450225982 L 467.30428108869 1081.87850225982 C 467.30428108869 1081.11050225982 467.62428108869 1080.72650225982 468.26428108869 1080.72650225982 L 471.04828108869 1080.72650225982 C 471.75228108869 1080.72650225982 472.10428108869 1081.11050225982 472.10428108869 1081.87850225982 L 472.10428108869 1085.91050225982 L 472.48828108869 1085.91050225982 C 473.19228108869 1084.56650225982 474.44028108869 1083.36650225982 476.23228108869 1082.31050225982 C 478.02428108869 1081.25450225982 480.23228108869 1080.72650225982 482.85628108869 1080.72650225982 L 486.60028108869 1080.72650225982 C 487.30428108869 1080.72650225982 487.65628108869 1081.07850225982 487.65628108869 1081.78250225982 L 487.65628108869 1084.08650225982 C 487.65628108869 1084.79050225982 487.30428108869 1085.11050225982 486.60028108869 1085.04650225982 L 482.08828108869 1085.04650225982 C 478.95228108869 1085.04650225982 476.50428108869 1086.00650225982 474.74428108869 1087.92650225982 C 472.98428108869 1089.84650225982 472.10428108869 1092.43850225982 472.10428108869 1095.70250225982 L 472.10428108869 1128.53450225982 C 472.10428108869 1129.30250225982 471.75228108869 1129.68650225982 471.04828108869 1129.68650225982 Z M 497.83228108869 1072.66250225982 L 497.83228108869 1063.44650225982 C 497.83228108869 1062.74250225982 498.15228108869 1062.39050225982 498.79228108869 1062.39050225982 L 501.67228108869 1062.39050225982 C 502.31228108869 1062.39050225982 502.63228108869 1062.74250225982 502.63228108869 1063.44650225982 L 502.63228108869 1072.66250225982 C 502.63228108869 1073.43050225982 502.31228108869 1073.81450225982 501.67228108869 1073.81450225982 L 498.79228108869 1073.81450225982 C 498.15228108869 1073.81450225982 497.83228108869 1073.43050225982 497.83228108869 1072.66250225982 Z M 497.83228108869 1128.53450225982 L 497.83228108869 1081.87850225982 C 497.83228108869 1081.11050225982 498.15228108869 1080.72650225982 498.79228108869 1080.72650225982 L 501.57628108869 1080.72650225982 C 502.28028108869 1080.72650225982 502.63228108869 1081.11050225982 502.63228108869 1081.87850225982 L 502.63228108869 1128.53450225982 C 502.63228108869 1129.30250225982 502.31228108869 1129.68650225982 501.67228108869 1129.68650225982 L 498.79228108869 1129.68650225982 C 498.15228108869 1129.68650225982 497.83228108869 1129.30250225982 497.83228108869 1128.53450225982 Z M 521.25628108869 1129.68650225982 L 518.47228108869 1129.68650225982 C 517.83228108869 1129.68650225982 517.51228108869 1129.30250225982 517.51228108869 1128.53450225982 L 517.51228108869 1081.87850225982 C 517.51228108869 1081.11050225982 517.83228108869 1080.72650225982 518.47228108869 1080.72650225982 L 521.25628108869 1080.72650225982 C 521.96028108869 1080.72650225982 522.31228108869 1081.11050225982 522.31228108869 1081.87850225982 L 522.31228108869 1085.71850225982 L 522.69628108869 1085.71850225982 C 524.48828108869 1082.39050225982 527.81628108869 1080.72650225982 532.68028108869 1080.72650225982 L 539.01628108869 1080.72650225982 C 543.11228108869 1080.72650225982 546.34428108869 1081.94250225982 548.71228108869 1084.37450225982 C 551.08028108869 1086.80650225982 552.26428108869 1090.13450225982 552.26428108869 1094.35850225982 L 552.26428108869 1128.53450225982 C 552.26428108869 1129.30250225982 551.94428108869 1129.68650225982 551.30428108869 1129.68650225982 L 548.52028108869 1129.68650225982 C 547.81628108869 1129.68650225982 547.46428108869 1129.30250225982 547.46428108869 1128.53450225982 L 547.46428108869 1094.55050225982 C 547.46428108869 1091.54250225982 546.69628108869 1089.20650225982 545.16028108869 1087.54250225982 C 543.62428108869 1085.87850225982 541.38428108869 1085.04650225982 538.44028108869 1085.04650225982 L 532.20028108869 1085.04650225982 C 529.12828108869 1085.04650225982 526.71228108869 1085.86250225982 524.95228108869 1087.49450225982 C 523.19228108869 1089.12650225982 522.31228108869 1091.44650225982 522.31228108869 1094.45450225982 L 522.31228108869 1128.53450225982 C 522.31228108869 1129.30250225982 521.96028108869 1129.68650225982 521.25628108869 1129.68650225982 Z M 585.19228108869 1126.90250225982 L 578.95228108869 1126.90250225982 C 574.85628108869 1126.90250225982 571.60828108869 1125.68650225982 569.20828108869 1123.25450225982 C 566.80828108869 1120.82250225982 565.60828108869 1117.52650225982 565.60828108869 1113.36650225982 L 565.60828108869 1094.35850225982 C 565.60828108869 1090.13450225982 566.80828108869 1086.80650225982 569.20828108869 1084.37450225982 C 571.60828108869 1081.94250225982 574.88828108869 1080.72650225982 579.04828108869 1080.72650225982 L 599.40028108869 1080.72650225982 C 600.10428108869 1080.72650225982 600.45628108869 1081.11050225982 600.45628108869 1081.87850225982 L 600.45628108869 1129.49450225982 C 600.45628108869 1133.71850225982 599.24028108869 1137.04650225982 596.80828108869 1139.47850225982 C 594.37628108869 1141.91050225982 591.08028108869 1143.12650225982 586.92028108869 1143.12650225982 L 569.44828108869 1143.12650225982 C 568.74428108869 1143.12650225982 568.39228108869 1142.77450225982 568.39228108869 1142.07050225982 L 568.39228108869 1139.76650225982 C 568.39228108869 1139.12650225982 568.74428108869 1138.80650225982 569.44828108869 1138.80650225982 L 586.53628108869 1138.80650225982 C 589.48028108869 1138.80650225982 591.72028108869 1137.99050225982 593.25628108869 1136.35850225982 C 594.79228108869 1134.72650225982 595.56028108869 1132.37450225982 595.56028108869 1129.30250225982 L 595.56028108869 1121.91050225982 L 595.17628108869 1121.91050225982 C 593.57628108869 1125.23850225982 590.24828108869 1126.90250225982 585.19228108869 1126.90250225982 Z M 595.56028108869 1113.17450225982 L 595.56028108869 1085.91050225982 C 595.56028108869 1085.33450225982 595.27228108869 1085.04650225982 594.69628108869 1085.04650225982 L 579.52828108869 1085.04650225982 C 576.58428108869 1085.04650225982 574.32828108869 1085.86250225982 572.76028108869 1087.49450225982 C 571.19228108869 1089.12650225982 570.40828108869 1091.47850225982 570.40828108869 1094.55050225982 L 570.40828108869 1113.17450225982 C 570.40828108869 1116.18250225982 571.19228108869 1118.50250225982 572.76028108869 1120.13450225982 C 574.32828108869 1121.76650225982 576.58428108869 1122.58250225982 579.52828108869 1122.58250225982 L 585.67228108869 1122.58250225982 C 588.74428108869 1122.58250225982 591.16028108869 1121.76650225982 592.92028108869 1120.13450225982 C 594.68028108869 1118.50250225982 595.56028108869 1116.18250225982 595.56028108869 1113.17450225982 Z M 639.72028108869 1129.68650225982 L 636.74428108869 1129.68650225982 C 636.04028108869 1129.68650225982 635.81628108869 1129.30250225982 636.07228108869 1128.53450225982 L 655.17628108869 1069.11050225982 C 655.36828108869 1068.34250225982 655.81628108869 1067.95850225982 656.52028108869 1067.95850225982 L 661.03228108869 1067.95850225982 C 661.67228108869 1067.95850225982 662.12028108869 1068.34250225982 662.37628108869 1069.11050225982 L 681.48028108869 1128.53450225982 C 681.67228108869 1129.30250225982 681.44828108869 1129.68650225982 680.80828108869 1129.68650225982 L 677.73628108869 1129.68650225982 C 677.09628108869 1129.68650225982 676.68028108869 1129.30250225982 676.48828108869 1128.53450225982 L 671.30428108869 1113.17450225982 L 646.15228108869 1113.17450225982 L 640.96828108869 1128.53450225982 C 640.71228108869 1129.30250225982 640.29628108869 1129.68650225982 639.72028108869 1129.68650225982 Z M 658.53628108869 1073.23850225982 L 647.49628108869 1108.85450225982 L 670.05628108869 1108.85450225982 L 658.92028108869 1073.23850225982 L 658.53628108869 1073.23850225982 Z M 692.04028108869 1072.66250225982 L 692.04028108869 1063.44650225982 C 692.04028108869 1062.74250225982 692.36028108869 1062.39050225982 693.00028108869 1062.39050225982 L 695.88028108869 1062.39050225982 C 696.52028108869 1062.39050225982 696.84028108869 1062.74250225982 696.84028108869 1063.44650225982 L 696.84028108869 1072.66250225982 C 696.84028108869 1073.43050225982 696.52028108869 1073.81450225982 695.88028108869 1073.81450225982 L 693.00028108869 1073.81450225982 C 692.36028108869 1073.81450225982 692.04028108869 1073.43050225982 692.04028108869 1072.66250225982 Z M 692.04028108869 1128.53450225982 L 692.04028108869 1081.87850225982 C 692.04028108869 1081.11050225982 692.36028108869 1080.72650225982 693.00028108869 1080.72650225982 L 695.78428108869 1080.72650225982 C 696.48828108869 1080.72650225982 696.84028108869 1081.11050225982 696.84028108869 1081.87850225982 L 696.84028108869 1128.53450225982 C 696.84028108869 1129.30250225982 696.52028108869 1129.68650225982 695.88028108869 1129.68650225982 L 693.00028108869 1129.68650225982 C 692.36028108869 1129.68650225982 692.04028108869 1129.30250225982 692.04028108869 1128.53450225982 Z M 730.44028108869 1129.68650225982 L 724.00828108869 1129.68650225982 C 719.91228108869 1129.68650225982 716.68028108869 1128.47050225982 714.31228108869 1126.03850225982 C 711.94428108869 1123.60650225982 710.76028108869 1120.27850225982 710.76028108869 1116.05450225982 L 710.76028108869 1094.35850225982 C 710.76028108869 1090.13450225982 711.94428108869 1086.80650225982 714.31228108869 1084.37450225982 C 716.68028108869 1081.94250225982 719.91228108869 1080.72650225982 724.00828108869 1080.72650225982 L 730.44028108869 1080.72650225982 C 735.36828108869 1080.72650225982 738.72828108869 1082.39050225982 740.52028108869 1085.71850225982 L 740.90428108869 1085.71850225982 L 740.90428108869 1063.35050225982 C 740.90428108869 1062.58250225982 741.22428108869 1062.19850225982 741.86428108869 1062.19850225982 L 744.64828108869 1062.19850225982 C 745.35228108869 1062.19850225982 745.70428108869 1062.58250225982 745.70428108869 1063.35050225982 L 745.70428108869 1128.53450225982 C 745.70428108869 1129.30250225982 745.35228108869 1129.68650225982 744.64828108869 1129.68650225982 L 741.86428108869 1129.68650225982 C 741.22428108869 1129.68650225982 740.90428108869 1129.30250225982 740.90428108869 1128.53450225982 L 740.90428108869 1124.69450225982 L 740.52028108869 1124.69450225982 C 738.72828108869 1128.02250225982 735.36828108869 1129.68650225982 730.44028108869 1129.68650225982 Z M 740.90428108869 1115.95850225982 L 740.90428108869 1094.45450225982 C 740.90428108869 1091.44650225982 740.02428108869 1089.12650225982 738.26428108869 1087.49450225982 C 736.50428108869 1085.86250225982 734.08828108869 1085.04650225982 731.01628108869 1085.04650225982 L 724.58428108869 1085.04650225982 C 721.64028108869 1085.04650225982 719.40028108869 1085.87850225982 717.86428108869 1087.54250225982 C 716.32828108869 1089.20650225982 715.56028108869 1091.54250225982 715.56028108869 1094.55050225982 L 715.56028108869 1115.86250225982 C 715.56028108869 1118.87050225982 716.32828108869 1121.20650225982 717.86428108869 1122.87050225982 C 719.40028108869 1124.53450225982 721.64028108869 1125.36650225982 724.58428108869 1125.36650225982 L 731.01628108869 1125.36650225982 C 734.08828108869 1125.36650225982 736.50428108869 1124.55050225982 738.26428108869 1122.91850225982 C 740.02428108869 1121.28650225982 740.90428108869 1118.96650225982 740.90428108869 1115.95850225982 Z M 795.81628108869 1080.72650225982 L 804.55228108869 1080.72650225982 C 805.32028108869 1080.72650225982 805.70428108869 1081.07850225982 805.70428108869 1081.78250225982 L 805.70428108869 1083.99050225982 C 805.70428108869 1084.69450225982 805.32028108869 1085.04650225982 804.55228108869 1085.04650225982 L 795.81628108869 1085.04650225982 C 795.24028108869 1085.04650225982 794.95228108869 1085.33450225982 794.95228108869 1085.91050225982 L 794.95228108869 1128.53450225982 C 794.95228108869 1129.30250225982 794.60028108869 1129.68650225982 793.89628108869 1129.68650225982 L 791.11228108869 1129.68650225982 C 790.40828108869 1129.68650225982 790.05628108869 1129.30250225982 790.05628108869 1128.53450225982 L 790.05628108869 1085.91050225982 C 790.05628108869 1085.33450225982 789.76828108869 1085.04650225982 789.19228108869 1085.04650225982 L 783.04828108869 1085.04650225982 C 782.34428108869 1085.04650225982 781.99228108869 1084.69450225982 781.99228108869 1083.99050225982 L 781.99228108869 1081.78250225982 C 781.99228108869 1081.07850225982 782.34428108869 1080.72650225982 783.04828108869 1080.72650225982 L 789.19228108869 1080.72650225982 C 789.76828108869 1080.72650225982 790.05628108869 1080.43850225982 790.05628108869 1079.86250225982 L 790.05628108869 1075.63850225982 C 790.05628108869 1066.67850225982 794.12028108869 1062.19850225982 802.24828108869 1062.19850225982 L 804.55228108869 1062.19850225982 C 805.32028108869 1062.19850225982 805.70428108869 1062.55050225982 805.70428108869 1063.25450225982 L 805.70428108869 1065.46250225982 C 805.70428108869 1066.16650225982 805.32028108869 1066.51850225982 804.55228108869 1066.51850225982 L 802.72828108869 1066.51850225982 C 799.84828108869 1066.51850225982 797.83228108869 1067.28650225982 796.68028108869 1068.82250225982 C 795.52828108869 1070.35850225982 794.95228108869 1072.69450225982 794.95228108869 1075.83050225982 L 794.95228108869 1079.86250225982 C 794.95228108869 1080.43850225982 795.24028108869 1080.72650225982 795.81628108869 1080.72650225982 Z M 835.56028108869 1129.68650225982 L 827.30428108869 1129.68650225982 C 823.14428108869 1129.68650225982 819.86428108869 1128.47050225982 817.46428108869 1126.03850225982 C 815.06428108869 1123.60650225982 813.86428108869 1120.27850225982 813.86428108869 1116.05450225982 L 813.86428108869 1094.35850225982 C 813.86428108869 1090.13450225982 815.06428108869 1086.80650225982 817.46428108869 1084.37450225982 C 819.86428108869 1081.94250225982 823.14428108869 1080.72650225982 827.30428108869 1080.72650225982 L 835.56028108869 1080.72650225982 C 839.72028108869 1080.72650225982 843.01628108869 1081.94250225982 845.44828108869 1084.37450225982 C 847.88028108869 1086.80650225982 849.09628108869 1090.13450225982 849.09628108869 1094.35850225982 L 849.09628108869 1116.05450225982 C 849.09628108869 1120.27850225982 847.88028108869 1123.60650225982 845.44828108869 1126.03850225982 C 843.01628108869 1128.47050225982 839.72028108869 1129.68650225982 835.56028108869 1129.68650225982 Z M 827.68828108869 1125.36650225982 L 835.17628108869 1125.36650225982 C 838.12028108869 1125.36650225982 840.37628108869 1124.55050225982 841.94428108869 1122.91850225982 C 843.51228108869 1121.28650225982 844.29628108869 1118.96650225982 844.29628108869 1115.95850225982 L 844.29628108869 1094.45450225982 C 844.29628108869 1091.44650225982 843.51228108869 1089.12650225982 841.94428108869 1087.49450225982 C 840.37628108869 1085.86250225982 838.12028108869 1085.04650225982 835.17628108869 1085.04650225982 L 827.68828108869 1085.04650225982 C 824.74428108869 1085.04650225982 822.50428108869 1085.86250225982 820.96828108869 1087.49450225982 C 819.43228108869 1089.12650225982 818.66428108869 1091.44650225982 818.66428108869 1094.45450225982 L 818.66428108869 1115.95850225982 C 818.66428108869 1118.96650225982 819.43228108869 1121.28650225982 820.96828108869 1122.91850225982 C 822.50428108869 1124.55050225982 824.74428108869 1125.36650225982 827.68828108869 1125.36650225982 Z M 866.18428108869 1129.68650225982 L 863.40028108869 1129.68650225982 C 862.76028108869 1129.68650225982 862.44028108869 1129.30250225982 862.44028108869 1128.53450225982 L 862.44028108869 1081.87850225982 C 862.44028108869 1081.11050225982 862.76028108869 1080.72650225982 863.40028108869 1080.72650225982 L 866.18428108869 1080.72650225982 C 866.88828108869 1080.72650225982 867.24028108869 1081.11050225982 867.24028108869 1081.87850225982 L 867.24028108869 1085.91050225982 L 867.62428108869 1085.91050225982 C 868.32828108869 1084.56650225982 869.57628108869 1083.36650225982 871.36828108869 1082.31050225982 C 873.16028108869 1081.25450225982 875.36828108869 1080.72650225982 877.99228108869 1080.72650225982 L 881.73628108869 1080.72650225982 C 882.44028108869 1080.72650225982 882.79228108869 1081.07850225982 882.79228108869 1081.78250225982 L 882.79228108869 1084.08650225982 C 882.79228108869 1084.79050225982 882.44028108869 1085.11050225982 881.73628108869 1085.04650225982 L 877.22428108869 1085.04650225982 C 874.08828108869 1085.04650225982 871.64028108869 1086.00650225982 869.88028108869 1087.92650225982 C 868.12028108869 1089.84650225982 867.24028108869 1092.43850225982 867.24028108869 1095.70250225982 L 867.24028108869 1128.53450225982 C 867.24028108869 1129.30250225982 866.88828108869 1129.68650225982 866.18428108869 1129.68650225982 Z M 922.82428108869 1129.68650225982 L 920.04028108869 1129.68650225982 C 919.40028108869 1129.68650225982 919.08028108869 1129.30250225982 919.08028108869 1128.53450225982 L 919.08028108869 1069.11050225982 C 919.08028108869 1068.34250225982 919.40028108869 1067.95850225982 920.04028108869 1067.95850225982 L 922.82428108869 1067.95850225982 C 923.52828108869 1067.95850225982 923.88028108869 1068.34250225982 923.88028108869 1069.11050225982 L 923.88028108869 1095.31850225982 C 923.88028108869 1095.89450225982 924.20028108869 1096.18250225982 924.84028108869 1096.18250225982 L 951.72028108869 1096.18250225982 C 952.36028108869 1096.18250225982 952.68028108869 1095.89450225982 952.68028108869 1095.31850225982 L 952.68028108869 1069.11050225982 C 952.68028108869 1068.34250225982 953.00028108869 1067.95850225982 953.64028108869 1067.95850225982 L 956.42428108869 1067.95850225982 C 957.12828108869 1067.95850225982 957.48028108869 1068.34250225982 957.48028108869 1069.11050225982 L 957.48028108869 1128.53450225982 C 957.48028108869 1129.30250225982 957.12828108869 1129.68650225982 956.42428108869 1129.68650225982 L 953.64028108869 1129.68650225982 C 953.00028108869 1129.68650225982 952.68028108869 1129.30250225982 952.68028108869 1128.53450225982 L 952.68028108869 1101.36650225982 C 952.68028108869 1100.79050225982 952.36028108869 1100.50250225982 951.72028108869 1100.50250225982 L 924.84028108869 1100.50250225982 C 924.20028108869 1100.50250225982 923.88028108869 1100.79050225982 923.88028108869 1101.36650225982 L 923.88028108869 1128.53450225982 C 923.88028108869 1129.30250225982 923.52828108869 1129.68650225982 922.82428108869 1129.68650225982 Z M 991.94428108869 1129.68650225982 L 985.60828108869 1129.68650225982 C 981.51228108869 1129.68650225982 978.28028108869 1128.47050225982 975.91228108869 1126.03850225982 C 973.54428108869 1123.60650225982 972.36028108869 1120.27850225982 972.36028108869 1116.05450225982 L 972.36028108869 1081.87850225982 C 972.36028108869 1081.11050225982 972.68028108869 1080.72650225982 973.32028108869 1080.72650225982 L 976.10428108869 1080.72650225982 C 976.80828108869 1080.72650225982 977.16028108869 1081.11050225982 977.16028108869 1081.87850225982 L 977.16028108869 1115.86250225982 C 977.16028108869 1118.87050225982 977.92828108869 1121.20650225982 979.46428108869 1122.87050225982 C 981.00028108869 1124.53450225982 983.24028108869 1125.36650225982 986.18428108869 1125.36650225982 L 992.42428108869 1125.36650225982 C 995.49628108869 1125.36650225982 997.91228108869 1124.55050225982 999.67228108869 1122.91850225982 C 1001.43228108869 1121.28650225982 1002.31228108869 1118.96650225982 1002.31228108869 1115.95850225982 L 1002.31228108869 1081.87850225982 C 1002.31228108869 1081.11050225982 1002.66428108869 1080.72650225982 1003.36828108869 1080.72650225982 L 1006.15228108869 1080.72650225982 C 1006.79228108869 1080.72650225982 1007.11228108869 1081.11050225982 1007.11228108869 1081.87850225982 L 1007.11228108869 1128.53450225982 C 1007.11228108869 1129.30250225982 1006.79228108869 1129.68650225982 1006.15228108869 1129.68650225982 L 1003.36828108869 1129.68650225982 C 1002.66428108869 1129.68650225982 1002.31228108869 1129.30250225982 1002.31228108869 1128.53450225982 L 1002.31228108869 1124.69450225982 L 1001.92828108869 1124.69450225982 C 1000.26428108869 1128.02250225982 996.93628108869 1129.68650225982 991.94428108869 1129.68650225982 Z M 1025.25628108869 1129.68650225982 L 1022.47228108869 1129.68650225982 C 1021.83228108869 1129.68650225982 1021.51228108869 1129.30250225982 1021.51228108869 1128.53450225982 L 1021.51228108869 1081.87850225982 C 1021.51228108869 1081.11050225982 1021.83228108869 1080.72650225982 1022.47228108869 1080.72650225982 L 1025.25628108869 1080.72650225982 C 1025.96028108869 1080.72650225982 1026.31228108869 1081.11050225982 1026.31228108869 1081.87850225982 L 1026.31228108869 1085.71850225982 L 1026.69628108869 1085.71850225982 C 1028.55228108869 1082.39050225982 1031.94428108869 1080.72650225982 1036.87228108869 1080.72650225982 L 1040.80828108869 1080.72650225982 C 1046.44028108869 1080.72650225982 1050.34428108869 1082.96650225982 1052.52028108869 1087.44650225982 C 1053.48028108869 1085.20650225982 1055.11228108869 1083.52650225982 1057.41628108869 1082.40650225982 C 1059.72028108869 1081.28650225982 1062.08828108869 1080.72650225982 1064.52028108869 1080.72650225982 L 1068.07228108869 1080.72650225982 C 1072.23228108869 1080.72650225982 1075.49628108869 1081.94250225982 1077.86428108869 1084.37450225982 C 1080.23228108869 1086.80650225982 1081.41628108869 1090.13450225982 1081.41628108869 1094.35850225982 L 1081.41628108869 1128.53450225982 C 1081.41628108869 1129.30250225982 1081.06428108869 1129.68650225982 1080.36028108869 1129.68650225982 L 1077.57628108869 1129.68650225982 C 1076.87228108869 1129.68650225982 1076.52028108869 1129.30250225982 1076.52028108869 1128.53450225982 L 1076.52028108869 1094.55050225982 C 1076.52028108869 1091.47850225982 1075.75228108869 1089.12650225982 1074.21628108869 1087.49450225982 C 1072.68028108869 1085.86250225982 1070.44028108869 1085.04650225982 1067.49628108869 1085.04650225982 L 1063.94428108869 1085.04650225982 C 1060.87228108869 1085.04650225982 1058.44028108869 1085.92650225982 1056.64828108869 1087.68650225982 C 1054.85628108869 1089.44650225982 1053.96028108869 1091.83050225982 1053.96028108869 1094.83850225982 L 1053.96028108869 1128.53450225982 C 1053.96028108869 1129.30250225982 1053.60828108869 1129.68650225982 1052.90428108869 1129.68650225982 L 1050.12028108869 1129.68650225982 C 1049.41628108869 1129.68650225982 1049.06428108869 1129.30250225982 1049.06428108869 1128.53450225982 L 1049.06428108869 1094.55050225982 C 1049.06428108869 1091.47850225982 1048.29628108869 1089.12650225982 1046.76028108869 1087.49450225982 C 1045.22428108869 1085.86250225982 1042.98428108869 1085.04650225982 1040.04028108869 1085.04650225982 L 1036.20028108869 1085.04650225982 C 1033.12828108869 1085.04650225982 1030.71228108869 1085.86250225982 1028.95228108869 1087.49450225982 C 1027.19228108869 1089.12650225982 1026.31228108869 1091.44650225982 1026.31228108869 1094.45450225982 L 1026.31228108869 1128.53450225982 C 1026.31228108869 1129.30250225982 1025.96028108869 1129.68650225982 1025.25628108869 1129.68650225982 Z M 1113.96028108869 1129.68650225982 L 1107.81628108869 1129.68650225982 C 1103.65628108869 1129.68650225982 1100.37628108869 1128.47050225982 1097.97628108869 1126.03850225982 C 1095.57628108869 1123.60650225982 1094.37628108869 1120.27850225982 1094.37628108869 1116.05450225982 L 1094.37628108869 1094.35850225982 C 1094.37628108869 1090.13450225982 1095.57628108869 1086.80650225982 1097.97628108869 1084.37450225982 C 1100.37628108869 1081.94250225982 1103.65628108869 1080.72650225982 1107.81628108869 1080.72650225982 L 1128.16828108869 1080.72650225982 C 1128.80828108869 1080.72650225982 1129.12828108869 1081.11050225982 1129.12828108869 1081.87850225982 L 1129.12828108869 1128.53450225982 C 1129.12828108869 1129.30250225982 1128.80828108869 1129.68650225982 1128.16828108869 1129.68650225982 L 1125.38428108869 1129.68650225982 C 1124.68028108869 1129.68650225982 1124.32828108869 1129.30250225982 1124.32828108869 1128.53450225982 L 1124.32828108869 1124.69450225982 L 1123.94428108869 1124.69450225982 C 1122.28028108869 1128.02250225982 1118.95228108869 1129.68650225982 1113.96028108869 1129.68650225982 Z M 1124.32828108869 1115.95850225982 L 1124.32828108869 1085.91050225982 C 1124.32828108869 1085.33450225982 1124.00828108869 1085.04650225982 1123.36828108869 1085.04650225982 L 1108.20028108869 1085.04650225982 C 1105.25628108869 1085.04650225982 1103.01628108869 1085.87850225982 1101.48028108869 1087.54250225982 C 1099.94428108869 1089.20650225982 1099.17628108869 1091.54250225982 1099.17628108869 1094.55050225982 L 1099.17628108869 1115.86250225982 C 1099.17628108869 1118.87050225982 1099.94428108869 1121.20650225982 1101.48028108869 1122.87050225982 C 1103.01628108869 1124.53450225982 1105.25628108869 1125.36650225982 1108.20028108869 1125.36650225982 L 1114.44028108869 1125.36650225982 C 1117.51228108869 1125.36650225982 1119.92828108869 1124.55050225982 1121.68828108869 1122.91850225982 C 1123.44828108869 1121.28650225982 1124.32828108869 1118.96650225982 1124.32828108869 1115.95850225982 Z M 1147.27228108869 1129.68650225982 L 1144.48828108869 1129.68650225982 C 1143.84828108869 1129.68650225982 1143.52828108869 1129.30250225982 1143.52828108869 1128.53450225982 L 1143.52828108869 1081.87850225982 C 1143.52828108869 1081.11050225982 1143.84828108869 1080.72650225982 1144.48828108869 1080.72650225982 L 1147.27228108869 1080.72650225982 C 1147.97628108869 1080.72650225982 1148.32828108869 1081.11050225982 1148.32828108869 1081.87850225982 L 1148.32828108869 1085.71850225982 L 1148.71228108869 1085.71850225982 C 1150.50428108869 1082.39050225982 1153.83228108869 1080.72650225982 1158.69628108869 1080.72650225982 L 1165.03228108869 1080.72650225982 C 1169.12828108869 1080.72650225982 1172.36028108869 1081.94250225982 1174.72828108869 1084.37450225982 C 1177.09628108869 1086.80650225982 1178.28028108869 1090.13450225982 1178.28028108869 1094.35850225982 L 1178.28028108869 1128.53450225982 C 1178.28028108869 1129.30250225982 1177.96028108869 1129.68650225982 1177.32028108869 1129.68650225982 L 1174.53628108869 1129.68650225982 C 1173.83228108869 1129.68650225982 1173.48028108869 1129.30250225982 1173.48028108869 1128.53450225982 L 1173.48028108869 1094.55050225982 C 1173.48028108869 1091.54250225982 1172.71228108869 1089.20650225982 1171.17628108869 1087.54250225982 C 1169.64028108869 1085.87850225982 1167.40028108869 1085.04650225982 1164.45628108869 1085.04650225982 L 1158.21628108869 1085.04650225982 C 1155.14428108869 1085.04650225982 1152.72828108869 1085.86250225982 1150.96828108869 1087.49450225982 C 1149.20828108869 1089.12650225982 1148.32828108869 1091.44650225982 1148.32828108869 1094.45450225982 L 1148.32828108869 1128.53450225982 C 1148.32828108869 1129.30250225982 1147.97628108869 1129.68650225982 1147.27228108869 1129.68650225982 Z M 1192.68028108869 1072.66250225982 L 1192.68028108869 1063.44650225982 C 1192.68028108869 1062.74250225982 1193.00028108869 1062.39050225982 1193.64028108869 1062.39050225982 L 1196.52028108869 1062.39050225982 C 1197.16028108869 1062.39050225982 1197.48028108869 1062.74250225982 1197.48028108869 1063.44650225982 L 1197.48028108869 1072.66250225982 C 1197.48028108869 1073.43050225982 1197.16028108869 1073.81450225982 1196.52028108869 1073.81450225982 L 1193.64028108869 1073.81450225982 C 1193.00028108869 1073.81450225982 1192.68028108869 1073.43050225982 1192.68028108869 1072.66250225982 Z M 1192.68028108869 1128.53450225982 L 1192.68028108869 1081.87850225982 C 1192.68028108869 1081.11050225982 1193.00028108869 1080.72650225982 1193.64028108869 1080.72650225982 L 1196.42428108869 1080.72650225982 C 1197.12828108869 1080.72650225982 1197.48028108869 1081.11050225982 1197.48028108869 1081.87850225982 L 1197.48028108869 1128.53450225982 C 1197.48028108869 1129.30250225982 1197.16028108869 1129.68650225982 1196.52028108869 1129.68650225982 L 1193.64028108869 1129.68650225982 C 1193.00028108869 1129.68650225982 1192.68028108869 1129.30250225982 1192.68028108869 1128.53450225982 Z M 1214.47228108869 1085.04650225982 L 1208.61628108869 1085.04650225982 C 1207.91228108869 1085.04650225982 1207.56028108869 1084.72650225982 1207.56028108869 1084.08650225982 L 1207.56028108869 1081.78250225982 C 1207.56028108869 1081.07850225982 1207.91228108869 1080.72650225982 1208.61628108869 1080.72650225982 L 1214.47228108869 1080.72650225982 C 1215.04828108869 1080.72650225982 1215.33628108869 1080.43850225982 1215.33628108869 1079.86250225982 L 1215.33628108869 1072.08650225982 C 1215.33628108869 1071.31850225982 1215.68828108869 1070.93450225982 1216.39228108869 1070.93450225982 L 1219.17628108869 1070.93450225982 C 1219.88028108869 1070.93450225982 1220.23228108869 1071.31850225982 1220.23228108869 1072.08650225982 L 1220.23228108869 1079.86250225982 C 1220.23228108869 1080.43850225982 1220.52028108869 1080.72650225982 1221.09628108869 1080.72650225982 L 1232.52028108869 1080.72650225982 C 1233.22428108869 1080.72650225982 1233.57628108869 1081.07850225982 1233.57628108869 1081.78250225982 L 1233.57628108869 1084.08650225982 C 1233.57628108869 1084.72650225982 1233.22428108869 1085.04650225982 1232.52028108869 1085.04650225982 L 1221.09628108869 1085.04650225982 C 1220.52028108869 1085.04650225982 1220.23228108869 1085.33450225982 1220.23228108869 1085.91050225982 L 1220.23228108869 1116.15050225982 C 1220.23228108869 1119.09450225982 1221.06428108869 1121.36650225982 1222.72828108869 1122.96650225982 C 1224.39228108869 1124.56650225982 1226.72828108869 1125.36650225982 1229.73628108869 1125.36650225982 L 1233.48028108869 1125.36650225982 C 1234.18428108869 1125.36650225982 1234.53628108869 1125.71850225982 1234.53628108869 1126.42250225982 L 1234.53628108869 1128.63050225982 C 1234.53628108869 1129.33450225982 1234.18428108869 1129.68650225982 1233.48028108869 1129.68650225982 L 1229.35228108869 1129.68650225982 C 1225.12828108869 1129.68650225982 1221.73628108869 1128.50250225982 1219.17628108869 1126.13450225982 C 1216.61628108869 1123.76650225982 1215.33628108869 1120.50250225982 1215.33628108869 1116.34250225982 L 1215.33628108869 1085.91050225982 C 1215.33628108869 1085.33450225982 1215.04828108869 1085.04650225982 1214.47228108869 1085.04650225982 Z M 1247.97628108869 1144.27850225982 L 1244.42428108869 1144.27850225982 C 1243.72028108869 1144.27850225982 1243.36828108869 1143.92650225982 1243.36828108869 1143.22250225982 L 1243.36828108869 1140.91850225982 C 1243.36828108869 1140.21450225982 1243.72028108869 1139.86250225982 1244.42428108869 1139.86250225982 L 1247.01628108869 1139.86250225982 C 1248.93628108869 1139.86250225982 1250.56828108869 1139.59050225982 1251.91228108869 1139.04650225982 C 1253.25628108869 1138.50250225982 1254.44028108869 1137.49450225982 1255.46428108869 1136.02250225982 C 1256.48828108869 1134.55050225982 1257.16028108869 1133.39850225982 1257.48028108869 1132.56650225982 C 1258.37628108869 1130.58250225982 1259.11228108869 1128.75850225982 1259.68828108869 1127.09450225982 L 1257.86428108869 1127.09450225982 C 1257.16028108869 1127.09450225982 1256.71228108869 1126.71050225982 1256.52028108869 1125.94250225982 L 1241.25628108869 1081.87850225982 C 1241.00028108869 1081.11050225982 1241.25628108869 1080.72650225982 1242.02428108869 1080.72650225982 L 1245.00028108869 1080.72650225982 C 1245.64028108869 1080.72650225982 1246.05628108869 1081.11050225982 1246.24828108869 1081.87850225982 L 1260.36028108869 1123.06250225982 L 1260.74428108869 1123.06250225982 L 1274.85628108869 1081.87850225982 C 1275.04828108869 1081.11050225982 1275.46428108869 1080.72650225982 1276.10428108869 1080.72650225982 L 1278.98428108869 1080.72650225982 C 1279.75228108869 1080.72650225982 1280.04028108869 1081.11050225982 1279.84828108869 1081.87850225982 C 1268.39228108869 1115.41450225982 1262.42428108869 1132.75850225982 1261.94428108869 1133.91050225982 C 1261.46428108869 1135.06250225982 1260.58428108869 1136.63050225982 1259.30428108869 1138.61450225982 C 1256.87228108869 1142.39050225982 1253.09628108869 1144.27850225982 1247.97628108869 1144.27850225982 Z M 1314.69628108869 1129.68650225982 L 1311.72028108869 1129.68650225982 C 1311.01628108869 1129.68650225982 1310.79228108869 1129.30250225982 1311.04828108869 1128.53450225982 L 1330.15228108869 1069.11050225982 C 1330.34428108869 1068.34250225982 1330.79228108869 1067.95850225982 1331.49628108869 1067.95850225982 L 1336.00828108869 1067.95850225982 C 1336.64828108869 1067.95850225982 1337.09628108869 1068.34250225982 1337.35228108869 1069.11050225982 L 1356.45628108869 1128.53450225982 C 1356.64828108869 1129.30250225982 1356.42428108869 1129.68650225982 1355.78428108869 1129.68650225982 L 1352.71228108869 1129.68650225982 C 1352.07228108869 1129.68650225982 1351.65628108869 1129.30250225982 1351.46428108869 1128.53450225982 L 1346.28028108869 1113.17450225982 L 1321.12828108869 1113.17450225982 L 1315.94428108869 1128.53450225982 C 1315.68828108869 1129.30250225982 1315.27228108869 1129.68650225982 1314.69628108869 1129.68650225982 Z M 1333.51228108869 1073.23850225982 L 1322.47228108869 1108.85450225982 L 1345.03228108869 1108.85450225982 L 1333.89628108869 1073.23850225982 L 1333.51228108869 1073.23850225982 Z M 1370.28028108869 1129.68650225982 L 1367.49628108869 1129.68650225982 C 1366.85628108869 1129.68650225982 1366.53628108869 1129.30250225982 1366.53628108869 1128.53450225982 L 1366.53628108869 1081.87850225982 C 1366.53628108869 1081.11050225982 1366.85628108869 1080.72650225982 1367.49628108869 1080.72650225982 L 1370.28028108869 1080.72650225982 C 1370.98428108869 1080.72650225982 1371.33628108869 1081.11050225982 1371.33628108869 1081.87850225982 L 1371.33628108869 1085.71850225982 L 1371.72028108869 1085.71850225982 C 1373.51228108869 1082.39050225982 1376.84028108869 1080.72650225982 1381.70428108869 1080.72650225982 L 1388.04028108869 1080.72650225982 C 1392.13628108869 1080.72650225982 1395.36828108869 1081.94250225982 1397.73628108869 1084.37450225982 C 1400.10428108869 1086.80650225982 1401.28828108869 1090.13450225982 1401.28828108869 1094.35850225982 L 1401.28828108869 1128.53450225982 C 1401.28828108869 1129.30250225982 1400.96828108869 1129.68650225982 1400.32828108869 1129.68650225982 L 1397.54428108869 1129.68650225982 C 1396.84028108869 1129.68650225982 1396.48828108869 1129.30250225982 1396.48828108869 1128.53450225982 L 1396.48828108869 1094.55050225982 C 1396.48828108869 1091.54250225982 1395.72028108869 1089.20650225982 1394.18428108869 1087.54250225982 C 1392.64828108869 1085.87850225982 1390.40828108869 1085.04650225982 1387.46428108869 1085.04650225982 L 1381.22428108869 1085.04650225982 C 1378.15228108869 1085.04650225982 1375.73628108869 1085.86250225982 1373.97628108869 1087.49450225982 C 1372.21628108869 1089.12650225982 1371.33628108869 1091.44650225982 1371.33628108869 1094.45450225982 L 1371.33628108869 1128.53450225982 C 1371.33628108869 1129.30250225982 1370.98428108869 1129.68650225982 1370.28028108869 1129.68650225982 Z M 1433.92828108869 1129.68650225982 L 1427.49628108869 1129.68650225982 C 1423.40028108869 1129.68650225982 1420.16828108869 1128.47050225982 1417.80028108869 1126.03850225982 C 1415.43228108869 1123.60650225982 1414.24828108869 1120.27850225982 1414.24828108869 1116.05450225982 L 1414.24828108869 1094.35850225982 C 1414.24828108869 1090.13450225982 1415.43228108869 1086.80650225982 1417.80028108869 1084.37450225982 C 1420.16828108869 1081.94250225982 1423.40028108869 1080.72650225982 1427.49628108869 1080.72650225982 L 1433.92828108869 1080.72650225982 C 1438.85628108869 1080.72650225982 1442.21628108869 1082.39050225982 1444.00828108869 1085.71850225982 L 1444.39228108869 1085.71850225982 L 1444.39228108869 1063.35050225982 C 1444.39228108869 1062.58250225982 1444.71228108869 1062.19850225982 1445.35228108869 1062.19850225982 L 1448.13628108869 1062.19850225982 C 1448.84028108869 1062.19850225982 1449.19228108869 1062.58250225982 1449.19228108869 1063.35050225982 L 1449.19228108869 1128.53450225982 C 1449.19228108869 1129.30250225982 1448.84028108869 1129.68650225982 1448.13628108869 1129.68650225982 L 1445.35228108869 1129.68650225982 C 1444.71228108869 1129.68650225982 1444.39228108869 1129.30250225982 1444.39228108869 1128.53450225982 L 1444.39228108869 1124.69450225982 L 1444.00828108869 1124.69450225982 C 1442.21628108869 1128.02250225982 1438.85628108869 1129.68650225982 1433.92828108869 1129.68650225982 Z M 1444.39228108869 1115.95850225982 L 1444.39228108869 1094.45450225982 C 1444.39228108869 1091.44650225982 1443.51228108869 1089.12650225982 1441.75228108869 1087.49450225982 C 1439.99228108869 1085.86250225982 1437.57628108869 1085.04650225982 1434.50428108869 1085.04650225982 L 1428.07228108869 1085.04650225982 C 1425.12828108869 1085.04650225982 1422.88828108869 1085.87850225982 1421.35228108869 1087.54250225982 C 1419.81628108869 1089.20650225982 1419.04828108869 1091.54250225982 1419.04828108869 1094.55050225982 L 1419.04828108869 1115.86250225982 C 1419.04828108869 1118.87050225982 1419.81628108869 1121.20650225982 1421.35228108869 1122.87050225982 C 1422.88828108869 1124.53450225982 1425.12828108869 1125.36650225982 1428.07228108869 1125.36650225982 L 1434.50428108869 1125.36650225982 C 1437.57628108869 1125.36650225982 1439.99228108869 1124.55050225982 1441.75228108869 1122.91850225982 C 1443.51228108869 1121.28650225982 1444.39228108869 1118.96650225982 1444.39228108869 1115.95850225982 Z M 1493.92828108869 1129.68650225982 L 1491.14428108869 1129.68650225982 C 1490.50428108869 1129.68650225982 1490.18428108869 1129.30250225982 1490.18428108869 1128.53450225982 L 1490.18428108869 1069.11050225982 C 1490.18428108869 1068.34250225982 1490.50428108869 1067.95850225982 1491.14428108869 1067.95850225982 L 1493.73628108869 1067.95850225982 C 1494.31228108869 1067.95850225982 1494.69628108869 1068.15050225982 1494.88828108869 1068.53450225982 L 1524.36028108869 1119.22250225982 L 1524.74428108869 1119.22250225982 L 1524.74428108869 1069.11050225982 C 1524.74428108869 1068.34250225982 1525.09628108869 1067.95850225982 1525.80028108869 1067.95850225982 L 1528.48828108869 1067.95850225982 C 1529.19228108869 1067.95850225982 1529.54428108869 1068.34250225982 1529.54428108869 1069.11050225982 L 1529.54428108869 1128.53450225982 C 1529.54428108869 1129.30250225982 1529.19228108869 1129.68650225982 1528.48828108869 1129.68650225982 L 1526.28028108869 1129.68650225982 C 1525.70428108869 1129.68650225982 1525.19228108869 1129.33450225982 1524.74428108869 1128.63050225982 L 1495.36828108869 1078.32650225982 L 1494.98428108869 1078.32650225982 L 1494.98428108869 1128.53450225982 C 1494.98428108869 1129.30250225982 1494.63228108869 1129.68650225982 1493.92828108869 1129.68650225982 Z M 1563.43228108869 1129.68650225982 L 1557.28828108869 1129.68650225982 C 1553.12828108869 1129.68650225982 1549.84828108869 1128.47050225982 1547.44828108869 1126.03850225982 C 1545.04828108869 1123.60650225982 1543.84828108869 1120.27850225982 1543.84828108869 1116.05450225982 L 1543.84828108869 1094.35850225982 C 1543.84828108869 1090.13450225982 1545.04828108869 1086.80650225982 1547.44828108869 1084.37450225982 C 1549.84828108869 1081.94250225982 1553.12828108869 1080.72650225982 1557.28828108869 1080.72650225982 L 1577.64028108869 1080.72650225982 C 1578.28028108869 1080.72650225982 1578.60028108869 1081.11050225982 1578.60028108869 1081.87850225982 L 1578.60028108869 1128.53450225982 C 1578.60028108869 1129.30250225982 1578.28028108869 1129.68650225982 1577.64028108869 1129.68650225982 L 1574.85628108869 1129.68650225982 C 1574.15228108869 1129.68650225982 1573.80028108869 1129.30250225982 1573.80028108869 1128.53450225982 L 1573.80028108869 1124.69450225982 L 1573.41628108869 1124.69450225982 C 1571.75228108869 1128.02250225982 1568.42428108869 1129.68650225982 1563.43228108869 1129.68650225982 Z M 1573.80028108869 1115.95850225982 L 1573.80028108869 1085.91050225982 C 1573.80028108869 1085.33450225982 1573.48028108869 1085.04650225982 1572.84028108869 1085.04650225982 L 1557.67228108869 1085.04650225982 C 1554.72828108869 1085.04650225982 1552.48828108869 1085.87850225982 1550.95228108869 1087.54250225982 C 1549.41628108869 1089.20650225982 1548.64828108869 1091.54250225982 1548.64828108869 1094.55050225982 L 1548.64828108869 1115.86250225982 C 1548.64828108869 1118.87050225982 1549.41628108869 1121.20650225982 1550.95228108869 1122.87050225982 C 1552.48828108869 1124.53450225982 1554.72828108869 1125.36650225982 1557.67228108869 1125.36650225982 L 1563.91228108869 1125.36650225982 C 1566.98428108869 1125.36650225982 1569.40028108869 1124.55050225982 1571.16028108869 1122.91850225982 C 1572.92028108869 1121.28650225982 1573.80028108869 1118.96650225982 1573.80028108869 1115.95850225982 Z M 1595.11228108869 1085.04650225982 L 1589.25628108869 1085.04650225982 C 1588.55228108869 1085.04650225982 1588.20028108869 1084.72650225982 1588.20028108869 1084.08650225982 L 1588.20028108869 1081.78250225982 C 1588.20028108869 1081.07850225982 1588.55228108869 1080.72650225982 1589.25628108869 1080.72650225982 L 1595.11228108869 1080.72650225982 C 1595.68828108869 1080.72650225982 1595.97628108869 1080.43850225982 1595.97628108869 1079.86250225982 L 1595.97628108869 1072.08650225982 C 1595.97628108869 1071.31850225982 1596.32828108869 1070.93450225982 1597.03228108869 1070.93450225982 L 1599.81628108869 1070.93450225982 C 1600.52028108869 1070.93450225982 1600.87228108869 1071.31850225982 1600.87228108869 1072.08650225982 L 1600.87228108869 1079.86250225982 C 1600.87228108869 1080.43850225982 1601.16028108869 1080.72650225982 1601.73628108869 1080.72650225982 L 1613.16028108869 1080.72650225982 C 1613.86428108869 1080.72650225982 1614.21628108869 1081.07850225982 1614.21628108869 1081.78250225982 L 1614.21628108869 1084.08650225982 C 1614.21628108869 1084.72650225982 1613.86428108869 1085.04650225982 1613.16028108869 1085.04650225982 L 1601.73628108869 1085.04650225982 C 1601.16028108869 1085.04650225982 1600.87228108869 1085.33450225982 1600.87228108869 1085.91050225982 L 1600.87228108869 1116.15050225982 C 1600.87228108869 1119.09450225982 1601.70428108869 1121.36650225982 1603.36828108869 1122.96650225982 C 1605.03228108869 1124.56650225982 1607.36828108869 1125.36650225982 1610.37628108869 1125.36650225982 L 1614.12028108869 1125.36650225982 C 1614.82428108869 1125.36650225982 1615.17628108869 1125.71850225982 1615.17628108869 1126.42250225982 L 1615.17628108869 1128.63050225982 C 1615.17628108869 1129.33450225982 1614.82428108869 1129.68650225982 1614.12028108869 1129.68650225982 L 1609.99228108869 1129.68650225982 C 1605.76828108869 1129.68650225982 1602.37628108869 1128.50250225982 1599.81628108869 1126.13450225982 C 1597.25628108869 1123.76650225982 1595.97628108869 1120.50250225982 1595.97628108869 1116.34250225982 L 1595.97628108869 1085.91050225982 C 1595.97628108869 1085.33450225982 1595.68828108869 1085.04650225982 1595.11228108869 1085.04650225982 Z M 1645.41628108869 1129.68650225982 L 1639.08028108869 1129.68650225982 C 1634.98428108869 1129.68650225982 1631.75228108869 1128.47050225982 1629.38428108869 1126.03850225982 C 1627.01628108869 1123.60650225982 1625.83228108869 1120.27850225982 1625.83228108869 1116.05450225982 L 1625.83228108869 1081.87850225982 C 1625.83228108869 1081.11050225982 1626.15228108869 1080.72650225982 1626.79228108869 1080.72650225982 L 1629.57628108869 1080.72650225982 C 1630.28028108869 1080.72650225982 1630.63228108869 1081.11050225982 1630.63228108869 1081.87850225982 L 1630.63228108869 1115.86250225982 C 1630.63228108869 1118.87050225982 1631.40028108869 1121.20650225982 1632.93628108869 1122.87050225982 C 1634.47228108869 1124.53450225982 1636.71228108869 1125.36650225982 1639.65628108869 1125.36650225982 L 1645.89628108869 1125.36650225982 C 1648.96828108869 1125.36650225982 1651.38428108869 1124.55050225982 1653.14428108869 1122.91850225982 C 1654.90428108869 1121.28650225982 1655.78428108869 1118.96650225982 1655.78428108869 1115.95850225982 L 1655.78428108869 1081.87850225982 C 1655.78428108869 1081.11050225982 1656.13628108869 1080.72650225982 1656.84028108869 1080.72650225982 L 1659.62428108869 1080.72650225982 C 1660.26428108869 1080.72650225982 1660.58428108869 1081.11050225982 1660.58428108869 1081.87850225982 L 1660.58428108869 1128.53450225982 C 1660.58428108869 1129.30250225982 1660.26428108869 1129.68650225982 1659.62428108869 1129.68650225982 L 1656.84028108869 1129.68650225982 C 1656.13628108869 1129.68650225982 1655.78428108869 1129.30250225982 1655.78428108869 1128.53450225982 L 1655.78428108869 1124.69450225982 L 1655.40028108869 1124.69450225982 C 1653.73628108869 1128.02250225982 1650.40828108869 1129.68650225982 1645.41628108869 1129.68650225982 Z M 1678.72828108869 1129.68650225982 L 1675.94428108869 1129.68650225982 C 1675.30428108869 1129.68650225982 1674.98428108869 1129.30250225982 1674.98428108869 1128.53450225982 L 1674.98428108869 1081.87850225982 C 1674.98428108869 1081.11050225982 1675.30428108869 1080.72650225982 1675.94428108869 1080.72650225982 L 1678.72828108869 1080.72650225982 C 1679.43228108869 1080.72650225982 1679.78428108869 1081.11050225982 1679.78428108869 1081.87850225982 L 1679.78428108869 1085.91050225982 L 1680.16828108869 1085.91050225982 C 1680.87228108869 1084.56650225982 1682.12028108869 1083.36650225982 1683.91228108869 1082.31050225982 C 1685.70428108869 1081.25450225982 1687.91228108869 1080.72650225982 1690.53628108869 1080.72650225982 L 1694.28028108869 1080.72650225982 C 1694.98428108869 1080.72650225982 1695.33628108869 1081.07850225982 1695.33628108869 1081.78250225982 L 1695.33628108869 1084.08650225982 C 1695.33628108869 1084.79050225982 1694.98428108869 1085.11050225982 1694.28028108869 1085.04650225982 L 1689.76828108869 1085.04650225982 C 1686.63228108869 1085.04650225982 1684.18428108869 1086.00650225982 1682.42428108869 1087.92650225982 C 1680.66428108869 1089.84650225982 1679.78428108869 1092.43850225982 1679.78428108869 1095.70250225982 L 1679.78428108869 1128.53450225982 C 1679.78428108869 1129.30250225982 1679.43228108869 1129.68650225982 1678.72828108869 1129.68650225982 Z M 1737.57628108869 1129.68650225982 L 1717.51228108869 1129.68650225982 C 1713.35228108869 1129.68650225982 1710.07228108869 1128.47050225982 1707.67228108869 1126.03850225982 C 1705.27228108869 1123.60650225982 1704.07228108869 1120.27850225982 1704.07228108869 1116.05450225982 L 1704.07228108869 1094.35850225982 C 1704.07228108869 1090.13450225982 1705.27228108869 1086.80650225982 1707.67228108869 1084.37450225982 C 1710.07228108869 1081.94250225982 1713.35228108869 1080.72650225982 1717.51228108869 1080.72650225982 L 1725.76828108869 1080.72650225982 C 1729.92828108869 1080.72650225982 1733.22428108869 1081.94250225982 1735.65628108869 1084.37450225982 C 1738.08828108869 1086.80650225982 1739.30428108869 1090.13450225982 1739.30428108869 1094.35850225982 L 1739.30428108869 1106.55050225982 C 1739.30428108869 1107.31850225982 1738.92028108869 1107.70250225982 1738.15228108869 1107.70250225982 L 1709.73628108869 1107.70250225982 C 1709.16028108869 1107.70250225982 1708.87228108869 1107.99050225982 1708.87228108869 1108.56650225982 L 1708.87228108869 1115.95850225982 C 1708.87228108869 1118.96650225982 1709.64028108869 1121.28650225982 1711.17628108869 1122.91850225982 C 1712.71228108869 1124.55050225982 1714.95228108869 1125.36650225982 1717.89628108869 1125.36650225982 L 1737.57628108869 1125.36650225982 C 1738.28028108869 1125.36650225982 1738.63228108869 1125.71850225982 1738.63228108869 1126.42250225982 L 1738.63228108869 1128.63050225982 C 1738.63228108869 1129.33450225982 1738.28028108869 1129.68650225982 1737.57628108869 1129.68650225982 Z M 1709.73628108869 1103.86250225982 L 1733.64028108869 1103.86250225982 C 1734.21628108869 1103.86250225982 1734.50428108869 1103.57450225982 1734.50428108869 1102.99850225982 L 1734.50428108869 1094.45450225982 C 1734.50428108869 1091.44650225982 1733.73628108869 1089.12650225982 1732.20028108869 1087.49450225982 C 1730.66428108869 1085.86250225982 1728.42428108869 1085.04650225982 1725.48028108869 1085.04650225982 L 1717.89628108869 1085.04650225982 C 1714.95228108869 1085.04650225982 1712.71228108869 1085.86250225982 1711.17628108869 1087.49450225982 C 1709.64028108869 1089.12650225982 1708.87228108869 1091.44650225982 1708.87228108869 1094.45450225982 L 1708.87228108869 1102.99850225982 C 1708.87228108869 1103.57450225982 1709.16028108869 1103.86250225982 1709.73628108869 1103.86250225982 Z"/></svg>